<?xml version="1.0" encoding="utf-8"?>
<!-- Generator: Adobe Illustrator 19.2.1, SVG Export Plug-In . SVG Version: 6.00 Build 0)  -->
<svg version="1.1" id="Layer_1" xmlns="http://www.w3.org/2000/svg" xmlns:xlink="http://www.w3.org/1999/xlink" x="0px" y="0px"
	 viewBox="0 0 315 148" style="enable-background:new 0 0 315 148;" xml:space="preserve">
<image style="display:none;overflow:visible;opacity:0.5;" width="1280" height="853" xlink:href="../New folder (3)/d8c256e095a3cf4762a7bd58b01d6452-170953234.jpg"  transform="matrix(0.2607 0 0 0.2607 -16.6667 -53)">
</image>
<circle cx="152.1" cy="111.8" r="8.5"/>
<circle cx="177.4" cy="111.5" r="8.5"/>
<circle cx="204.6" cy="111.7" r="8.5"/>
<circle cx="227.3" cy="111.7" r="8.5"/>
<circle cx="246.1" cy="111.3" r="8.5"/>
<circle cx="266" cy="111.3" r="8.5"/>
<circle cx="283.8" cy="103.1" r="8.5"/>
<circle cx="133.2" cy="100.8" r="7.3"/>
<path d="M133.2,102.2l13.3,7.7l119.7,1.3l12.7-2.8l11.9-2.5l4.6-2.7l2.3-0.6c0,0,2.1,0.1,2.4,0s1.3-0.5,1.3-0.5l1.9-1.2l1.9-1.9
	l1.2-1.9l-0.1-1.8l-1.3-1.4l-0.6-0.9L304,92l-1.2-0.8l-2.1-1.7l-0.9-3.1l-8.9-0.8l-3.3-1.6l-4.6-0.3h-5.3l-2.3-0.4l-1.3,0.6
	l-2.3-0.1l-7.1-0.9l-6.6-0.3l-6.8,0.3l-1.1-0.3l-8-0.1l-0.2-0.4l30.8,0.1l0.8-0.4l5.9-0.3l0.9-3.4l-0.2-2.6l-0.1-1.3l0.8-0.3
	l0.6-0.6l0.1-3l-0.6-1.1l-1.1-0.4l-0.3-8.3l-0.3-2.7l-12.2-8.7l0-2.8l-11.2-0.4l-2.4-0.1l-1.3,0.8l-8.1,0.1l-0.1-5l-1.1-0.8
	l-6.6-0.1l-1.2,1.1l-0.1,4.8l-9.6,0.9l-14.4-0.1l-2.2-1.4l-2.6-0.6l0.1-0.8l-2.3-0.3v-0.9l-3-0.3l-4.1-6.5l-2,2.2l-10.2,0.1
	l-0.5,0.7h-2.5l-0.4,0.5l-24.3,0.3l-0.1,1.1l14.2-0.1v0.5l10.5,0.1l0.3,1.1l0.3,0.8l10.7,1.2l1.1,0.8l0.3,0.8l-3.3,1.1h-2.6
	l-2.4,1.3l-3.3,2.1l-1.9,2.4l-0.8,1.1l-36.5-4.8l-1.1,1.1l-0.3,2.3l0.3,1.4l0.5,0.6l-22.1-2.9l-0.6,0.4L92.9,50l-0.2-0.5L91,49.3
	l-0.2-0.4l-21-2.5l-0.3,0.8l-41.3-4.6l-11.1-3.1L6.9,38.3L6.4,39l-0.6,6.1L6.2,46l0.3,0.3L17,47.8l10.6-0.4L69,52.8l-0.1,1.1
	l20.9,2.8l0.6-0.4l1.6,0.3l0.2-0.4l27.5,3.9l0.4,0.4l1.1-0.1l24.6,3.3l0.6,0.6h1.1l1.4,0.4l1-0.4l25.9,3.6l-3.1,8.7l3.9,5.5
	l-2.8,0.5l-9.8,0.5L146,87l-7.5,0.5l-11,1.7l-1.2-0.2l-7.3,6.6l0.7,2.3L133.2,102.2z"/>
<polygon points="149.8,86.4 152,70.6 151.4,69.8 151.4,63.9 157.6,64.7 155,85.5 149.8,87 "/>
<rect x="151.6" y="118.5" width="115.5" height="3"/>
<rect x="124.2" y="110.7" transform="matrix(0.8524 0.5229 -0.5229 0.8524 79.2369 -56.3473)" width="30.4" height="3"/>
<rect x="125.7" y="97.7" width="2.4" height="7.8"/>
<polygon points="267,121.5 265.6,118.8 292.5,104.7 290.9,108.9 "/>
</svg>
