<?xml version="1.0" encoding="utf-8"?>
<!-- Generator: Adobe Illustrator 19.2.1, SVG Export Plug-In . SVG Version: 6.00 Build 0)  -->
<svg version="1.1" id="Layer_1" xmlns="http://www.w3.org/2000/svg" xmlns:xlink="http://www.w3.org/1999/xlink" x="0px" y="0px"
	 viewBox="0 0 315 148" style="enable-background:new 0 0 315 148;" xml:space="preserve">
<style type="text/css">
	.st0{display:none;stroke:#000000;stroke-miterlimit:10;}
</style>
<path class="st0" d="M15.3,91.2c0,0,4,3.3,4.5,3.3s6.7-0.2,6.7-0.2l1.7-2.2v-0.7l-2.8-0.2l-1-2.5l-0.1-2.8l-0.9-2.8l0.8-1.4l0.4-2
	l-1.8-0.3l0.3-9.6l1-0.3l0.1-5.3l1-3.3l1.5-1.5l9.6-25.1l1.1-1.4l1.9-0.5L74.9,33l1.4,1.9l1.6,2.4v2.5v38.1l1.5,0.3l0.5-9.8L80,28.6
	l-5.1-0.3L74.5,25l2.1-1l4-0.1l3.3,0.1l1.1,1.4l-0.1,3.4h-1l0.4,37.9H92l2,8h4.1L98.8,57l1.4-0.4v-7.1l2.5-4.5l2-1.1l6.6,0.1l2,1.3
	l1.4,2.6l0.1,8.9h1.4l0.3-35.9L299.8,21l1.4,47.8l-1.5,0.5V85h-2.3l-0.4,1.9l-0.1,4.5l2.5,1.8l0.3,5.3l-2.1,2.6l-3.1-0.1l-1.9-2
	l-2.8,0.1v2.1l-31.4-0.3l2.8,5.5l1,3.5l0.1,5.1l-0.3,3.8l-2,5.3l-2.6,3.9l-4,4.1l-3.8,2l-4.9,1.5l-3.5,0.3l-4.6-0.6l-6.1-2.1
	l-3.8-2.9l-3.3-3.6l-2-4l-1.3-3l-6.6-0.1l-1.4,3.6l-2.9,4.6l-3,3.3l-4.5,2.8l-4.6,1.9l-4.6,0.5l-5-0.8l-7-2.8l-3.6-3.8l-3.4-4.1
	l-1.6-4.8l-0.9-5.1l-0.4-5.1l-7.4-0.1l-0.8,1.5l-6.5-0.1l-1,2.1l-0.8,0.5h-8l-1.1-2l-1.6,0.3l-0.5,0.9l-2.9,0.3l-0.5-1.5l-11.3-0.3
	v1.5l-2.9-0.5l-0.4-1.5l-3,0.4l-4.1-1l-0.1-2.6l-17.8-0.4l-1.5-0.9l-8.3,0.1l1.3,6.4l-0.4,5.8l-1,3.5l-1.3,3.1l-2.9,3.1l-3.5,3
	l-4,2.9l-6,1.8h-4.3l-5-0.9l-4.9-2.1l-4.9-4.4l-3-4.6l-1.4-4.1l-0.8-5.5l0.8-4.6l1.1-2.8l0.6-1l-2.9,1.4h-2l-20.9-5.6l-0.3-1.5
	L17,99.6l-0.3,1.4h-2.1v-9.6L15.3,91.2z"/>
<circle cx="89.9" cy="106.8" r="17.2"/>
<circle cx="189.7" cy="106" r="17.2"/>
<circle cx="225.4" cy="106.2" r="17.2"/>
<path d="M104,108.7l3.7-0.1l25-2.8l12.1,0.3l0.1,0.5l1.5,0l0.1,0.8l1.2,0.8l5.8-0.6l0.3-0.5l0.1-0.7l0.6-0.1l4.7,0v0.5h0.9l0.1-0.5
	l2.5,0l0,1.1l7.8,0l0.1-1.2l0.6,0l0-3.2l2.2,0.9l28.5,6.3l0.6,0.3l9,0.2L237,97.8h39l0.1-0.5l6.5,0l0-4.1l-1.2-0.1l-0.1-0.2
	l-0.5-0.4l0-0.3l0.3-0.1l0-0.3h2.4l0,0.4l0.3,0.1l0,1.6l0.5,0.2l0,1.1l0.6,0.3v0.2l-0.2,0.1l0,0.2l1.1,0.7l0.7-0.2l0.5-0.3l0-0.4
	l-0.2-0.1l0-0.3l0.5-0.1l0-1l0.5-0.3l0-1.7l0.3-0.1l0-0.3l1.2,0l0-3.5l1.3,0l1.4-10.3l0-1.1l0-1.4l0-0.8l-0.4-0.5l-0.6-0.4l-3.3-0.1
	l-0.2-13.2l-1-0.2l-0.1-1.4l-1.3,0v1.4l-1,0l-0.3,0.5l0,13l-3.1-0.1l0-12.9l-0.2-0.4l-1-0.1V59l-1.3-0.1l-0.1,1.4h-1l-0.3,0.4l0,13
	l-3.2,0l-0.5,0.3l-0.4,0.4l-0.2,0.5v1l-27.2,0.2v-0.6l1.6-1l0-0.8h5.2l0.2-3.2l0.5-0.2l10.4-0.1l0.1-11.9l40.4-2.3l0-1.4l1.6-0.1
	l0-1.5l4.8,0l0-11.7l-5.8-0.1l0-2.8l-0.3-0.3l-0.4-0.3l-0.5,0l-0.7-0.6l-0.7-0.6l-1-0.8l-1-0.5l-1.3-0.4l-1.7-0.2l-1.6,0l-1.4,0.4
	l-0.7,0.4l-1,0.1l0,0.3l-4.7,0.1l-2,2l-2.5-0.1l-0.4,0.4l-0.3,0.4l0,1.1l-0.9,1.5l-2.7,0.1l-12.1-2.6l0.2-9.7l-2.2-5.2l-0.7,0.1
	l-0.1-3h-2.5l-0.1,2.8l-25.3-0.3l-19.3,0.3H31L29.1,22l-0.9,0.1l-0.3-0.7l-1.2,0.9H26l0-0.7h-2.5l-0.2,0.8l-7.4,0l-0.3-0.5l-1.9-0.1
	l-1.4,0.8l-1,0.8l-0.3,0.6l-0.6,0.8l-0.1,0.7l-0.1,0.8l-0.4,0.1l0,0.9L9.6,28l0,2.9l1.8,0.2v2.7l-1.5,7.8l-0.1,2.9l2.4,3.8l5.9,0.1
	l3-3.1l2.1-0.8l0.1-1.1l-3-2.6l0.5-0.3l0.3,0.5h4.3l0.4,0.4l0.3,0.6h6.1L32,40.4l93.4,0.2l23.5-0.1l60.3-0.2l1.2,0l-3.8,11.8
	l-51.7-9.8l-0.2-0.4l-2.3-0.5l-0.4,1.6l-2.3-0.4l-1,0l0-0.6l0.3-0.5l-0.1-0.6l0-0.7l-23.4,0.1v0.7l0.7,1.1l15.9,5.4l3.8,0l1.8-1
	l3.5,0.8l-0.3,1.7l2.4,0.5l0.2-0.4l0.3,0.2l52.4,10l0.1,2.3l1,3.5l-0.5,0.3l2,4.8l1.5,0l0.2,0.5l-2.3,0v2.9l0.7,0l0.1,0.8l1.5,0.9
	V76l-51.4,0.1l-0.1-1.3l-0.2-0.4l-0.4-0.3l-0.2-0.2l-0.5-0.1l-17.2,0l-0.5,0.3l-0.3,0.5l-0.1,0.4v2.9l-1.1,0.2l-9.1,0l-19.1,8.4
	l0,1.9l-0.5,0.4l-1.8,0.1l0-3.5l-1.3-0.6l-0.1-0.9h-0.6l-0.5-1l1.1-1.2l0-2.6l0-1.7l-0.4-0.5l-1.6,0v-0.6l0.7-0.4l0.7-0.4l0.5-0.4
	l0.6-0.6l0.4-0.7l0.2-0.6l0.2-0.9l0-1.1l-0.2-1l-0.5-1l-0.5-0.7l-0.6-0.5l-0.6-0.4l-0.9-0.3l-0.8-0.2h-3.7l-0.4-8.3l0.1-5.3
	l-2.1-5.9l-0.3-0.2l-0.1-0.6c0,0-0.4-0.1-0.5,0s-0.1,0.6-0.1,0.6l-0.6,0.1l-0.2,0.6l-0.2,0l0-1l-0.3-0.8l-0.4-0.8l-0.6-0.5l-1-0.4
	l-1.8-0.1l-2.4-0.1l-0.1-0.4l-2.7-0.3l-2.7-0.2l-2.9,0l-5,0.2l-3.1,0.3l-1.6,0.1l-0.1,0.4l-1.4,0l-3.2,0.3L66,44.8l-1.4,1.8l-0.3,2
	l-5.9,14.7l-3,1.2l-1,1.8l0.6,0.7l0.2,0.3l0.2,0.7L54.7,68l-0.9,9.1l0.2,0.3l-0.8,0l0.9,7.8l2.3,0.1l0.2,1.8l0.2,0.3l1.2,0.3
	l0.7,2.3L58.5,92l-0.3,0.3L58.1,93l-0.7,0.4l-6.9-0.1l-0.5,0.4l-1.8-0.5L48.2,92l-2.3-0.1l-0.3,6.6h2.7v-1.3l0.5-0.2l0.5,0.4
	l0.2,2.2l0,0.8l0.6,0.1l0.5-1.3l-0.1-0.3v-0.4l3.3-0.1l3-0.3l-0.3,0.9l0.6,0.3l-0.1,0.6l-0.1,0.3l1.1,0.4l14.1,4.5"/>
<path d="M110.4,88.1"/>
<path d="M183.8,0"/>
<path d="M148.5,41.1"/>
</svg>
