<?xml version="1.0" encoding="UTF-8" standalone="no"?>
<svg xmlns="http://www.w3.org/2000/svg"
     xmlns:svg="http://www.w3.org/2000/svg"
     version="1.1"
     width="3.33333in" height="3.33333in"
     viewBox="0 0 1000 1000">
  <defs>
  </defs>
  <path id="vector0"
        fill="#000000"
        stroke="#000000"
        opacity="1.000000"
        stroke-width="6.000000"
        stroke-linecap="butt"
        stroke-linejoin="miter"
        stroke-miterlimit="10.000000"
        d="M 371.67,839.65
           C 371.67,839.65 363.22,843.03 363.22,843.03
             363.22,843.03 357.72,848.94 357.72,848.94
             357.72,848.94 244.47,849.37 244.04,849.37
             243.62,849.37 244.89,844.72 242.78,844.29
             240.66,843.87 232.21,840.07 232.21,840.07
             232.21,840.07 228.41,841.34 228.41,841.34
             228.41,841.34 219.11,747.94 219.11,747.94
             219.11,747.94 214.89,715.40 214.89,715.40
             214.89,715.40 217.00,650.74 217.00,650.74
             217.00,650.74 211.93,651.17 211.93,651.17
             211.93,651.17 207.28,655.39 207.28,655.39
             207.28,655.39 205.17,649.05 205.17,649.05
             205.17,649.05 211.85,614.00 211.85,614.00
             211.85,614.00 272.86,574.36 272.86,574.36
             272.86,574.36 311.48,574.64 311.48,574.64
             311.48,574.64 313.43,568.53 313.43,568.25
             313.43,567.97 315.09,565.19 315.37,565.19
             315.65,565.19 320.09,562.41 320.09,562.41
             320.09,562.41 325.37,559.91 325.65,559.91
             325.93,559.91 327.87,558.80 327.87,558.80
             327.87,558.80 327.87,542.41 327.87,542.41
             327.87,542.41 327.32,533.79 327.04,533.79
             326.76,533.79 325.10,526.01 324.82,525.73
             324.54,525.46 399.01,522.12 399.01,522.12
             399.01,522.12 401.23,518.51 401.23,518.51
             401.23,518.51 406.79,514.90 406.79,514.90
             406.79,514.90 421.52,514.06 421.52,514.06
             421.52,514.06 422.91,511.56 422.63,511.56
             422.35,511.56 416.51,511.29 416.51,511.29
             416.51,511.29 415.68,498.23 415.96,498.23
             416.24,498.23 410.68,497.39 410.68,497.11
             410.68,496.84 409.85,483.78 409.85,483.78
             409.85,483.78 405.68,478.78 405.68,478.50
             405.68,478.22 390.67,469.88 390.67,469.88
             390.67,469.88 384.00,474.61 383.73,474.61
             383.45,474.61 375.11,475.44 375.11,475.44
             375.11,475.44 362.89,452.38 362.89,452.38
             362.89,452.38 363.16,447.10 363.16,447.10
             363.16,447.10 366.22,442.93 366.22,442.93
             366.22,442.93 363.44,436.54 363.44,436.54
             363.44,436.54 366.22,432.37 366.22,432.37
             366.22,432.37 340.93,431.82 340.93,431.82
             340.93,431.82 317.59,372.91 317.59,372.91
             317.59,372.91 314.82,372.07 314.82,372.07
             314.82,372.07 306.76,357.07 306.76,357.07
             306.76,357.07 306.48,352.62 306.48,352.35
             306.48,352.07 370.11,304.28 370.11,304.28
             370.11,304.28 394.29,304.55 394.29,304.28
             394.29,304.00 412.62,297.88 412.35,297.88
             412.07,297.88 411.23,281.49 411.23,281.49
             411.23,281.49 418.18,279.27 416.51,277.60
             414.85,275.93 409.01,145.34 409.01,145.34
             409.01,145.34 410.96,142.28 410.96,142.28
             410.96,142.28 422.07,142.56 422.07,142.28
             422.07,142.00 424.29,144.50 424.29,144.50
             424.29,144.50 431.80,295.11 431.80,295.11
             431.80,295.11 473.75,297.88 473.75,297.88
             473.75,297.88 474.31,300.94 474.03,300.94
             473.75,300.94 433.19,312.89 433.19,312.89
             433.19,312.89 434.58,325.95 434.58,325.95
             434.58,325.95 442.08,347.90 442.08,347.90
             442.08,347.90 463.20,334.84 463.20,334.84
             463.20,334.84 473.48,335.67 473.48,335.67
             473.48,335.67 477.92,347.34 478.20,347.34
             478.48,347.34 483.33,344.43 483.33,344.43
             483.33,344.43 490.66,344.79 490.66,344.79
             490.66,344.79 493.42,344.43 493.66,344.43
             493.90,344.43 494.26,337.10 494.50,337.10
             494.74,337.10 538.23,302.74 538.23,302.74
             538.23,302.74 546.00,303.44 546.00,303.44
             546.00,303.44 633.25,240.37 633.25,240.37
             633.25,240.37 625.19,219.53 625.19,219.53
             625.19,219.53 627.97,216.19 627.97,216.19
             627.97,216.19 633.53,221.19 633.53,221.19
             633.53,221.19 635.47,218.41 635.75,218.41
             636.03,218.41 641.86,233.97 642.14,233.70
             642.42,233.42 669.93,213.13 669.93,213.13
             669.93,213.13 668.26,206.47 668.26,206.47
             668.26,206.47 687.43,191.74 687.43,191.74
             687.43,191.74 705.50,192.85 705.50,192.85
             705.50,192.85 710.50,203.41 709.94,203.41
             709.39,203.41 692.44,217.03 692.44,217.03
             692.44,217.03 682.71,217.58 682.71,217.58
             682.71,217.58 676.88,220.92 676.88,220.92
             676.88,220.92 647.98,243.42 647.98,243.42
             647.98,243.42 646.03,248.42 646.31,248.42
             646.59,248.42 638.53,248.98 638.53,248.98
             638.53,248.98 611.85,270.10 611.85,270.10
             611.85,270.10 614.08,272.88 614.08,272.88
             614.08,272.88 612.41,277.04 612.41,277.04
             612.41,277.04 589.90,294.27 589.90,294.27
             589.90,294.27 585.46,293.16 585.46,293.16
             585.46,293.16 585.74,303.16 585.74,303.16
             585.74,303.16 568.51,316.78 568.51,316.78
             568.51,316.78 572.12,327.06 572.12,327.06
             572.12,327.06 576.29,330.12 576.29,330.12
             576.29,330.12 580.46,338.17 580.46,338.17
             580.46,338.17 572.95,343.45 572.95,343.45
             572.95,343.45 569.62,347.62 569.62,347.62
             569.62,347.62 575.73,352.90 575.73,352.62
             575.73,352.35 582.96,360.68 582.96,360.68
             582.96,360.68 585.46,369.57 585.46,369.57
             585.46,369.57 585.46,372.91 585.18,372.91
             584.90,372.91 574.06,374.02 574.06,374.02
             574.06,374.02 574.06,378.19 573.79,378.19
             573.51,378.19 564.06,377.35 564.06,377.35
             564.06,377.35 555.45,380.69 555.45,380.69
             555.45,380.69 549.33,381.52 549.61,381.52
             549.89,381.52 547.39,388.19 547.39,388.19
             547.39,388.19 542.39,390.14 542.39,390.14
             542.39,390.14 546.28,404.59 546.28,404.59
             546.28,404.59 553.22,392.64 553.22,392.64
             553.22,392.64 570.02,392.07 570.02,392.07
             570.02,392.07 572.33,394.80 572.33,394.80
             572.33,394.80 587.67,394.38 587.88,394.17
             588.09,393.96 590.82,388.28 590.82,388.28
             590.82,388.28 597.55,387.86 597.55,387.65
             597.55,387.44 600.91,390.38 600.91,390.38
             600.91,390.38 623.18,388.91 623.18,388.91
             623.18,388.91 624.86,391.02 625.07,391.02
             625.28,391.02 638.31,390.17 638.31,390.17
             638.31,390.17 645.24,397.32 645.24,397.32
             645.24,397.32 644.82,403.83 644.82,403.83
             644.82,403.83 670.24,403.41 670.24,403.20
             670.24,402.99 674.23,403.83 674.44,403.62
             674.65,403.41 678.44,407.19 678.23,407.19
             678.02,407.19 679.70,484.72 679.70,484.72
             679.70,484.72 683.90,485.98 683.90,485.98
             683.90,485.98 684.32,493.55 684.32,493.55
             684.32,493.55 689.91,494.12 690.28,494.12
             690.64,494.12 695.39,496.86 695.57,497.23
             695.76,497.59 699.59,503.44 699.96,503.44
             700.32,503.44 703.43,508.92 703.43,508.92
             703.43,508.92 703.61,541.81 703.61,541.81
             703.61,541.81 699.59,541.81 698.68,541.99
             697.77,542.17 697.04,563.73 697.04,563.73
             697.04,563.73 693.93,565.38 693.93,565.38
             693.93,565.38 693.38,567.75 692.29,567.02
             691.19,566.29 796.84,566.44 797.21,566.44
             797.58,566.44 799.03,569.44 799.03,569.28
             799.03,569.12 799.98,595.17 799.98,595.17
             799.98,595.17 799.98,600.57 799.98,600.57
             799.98,600.57 789.98,604.07 789.98,604.07
             789.98,604.07 790.77,612.97 791.09,612.97
             791.41,612.97 792.91,619.15 792.91,619.15
             792.91,619.15 794.51,647.59 794.51,647.59
             794.51,647.59 794.83,670.60 794.83,670.92
             794.83,671.24 793.23,698.72 793.23,698.40
             793.23,698.08 791.95,717.57 791.95,717.57
             791.95,717.57 788.76,741.54 788.44,741.54
             788.12,741.54 784.92,774.77 784.92,774.77
             784.92,774.77 781.73,801.30 781.73,801.30
             781.73,801.30 781.73,815.04 781.73,815.04
             781.73,815.04 775.02,814.40 775.02,814.40
             775.02,814.40 773.42,821.11 773.42,821.11
             773.42,821.11 764.15,824.94 764.15,824.94
             764.15,824.94 754.57,832.61 754.57,832.61
             754.57,832.61 752.33,838.04 751.37,838.04
             750.41,838.04 621.32,838.36 621.32,838.36
             621.32,838.36 617.16,827.18 617.16,826.86
             617.16,826.54 613.97,809.92 614.61,809.60
             615.24,809.28 613.33,793.63 613.65,793.63
             613.97,793.63 607.89,789.79 607.89,789.79
             607.89,789.79 607.26,776.69 607.26,776.37
             607.26,776.05 611.09,774.13 611.09,773.81
             611.09,773.49 609.81,760.07 609.81,760.07
             609.81,760.07 601.50,764.55 601.50,764.55
             601.50,764.55 404.63,767.80 404.63,767.80
             404.63,767.80 402.10,775.83 402.10,775.83
             402.10,775.83 396.18,779.21 396.60,779.21
             397.03,779.21 394.49,799.50 394.49,799.50
             394.49,799.50 391.53,814.71 391.53,814.71
             391.53,814.71 391.11,822.32 391.11,822.32
             391.11,822.32 383.08,826.12 383.08,826.12
             383.08,826.12 375.90,835.84 375.90,835.84" />
</svg>
