<?xml version="1.0" encoding="UTF-8" standalone="no"?>
<svg xmlns="http://www.w3.org/2000/svg"
     xmlns:svg="http://www.w3.org/2000/svg"
     version="1.1"
     width="3.33333in" height="3.33333in"
     viewBox="0 0 1000 1000">
  <defs>
  </defs>
  <path id="vector0"
        fill="#000000"
        stroke="#000000"
        opacity="1.000000"
        stroke-width="6.000000"
        stroke-linecap="butt"
        stroke-linejoin="miter"
        stroke-miterlimit="10.000000"
        d="M 349.02,885.47
           C 349.02,885.47 339.08,889.44 339.08,889.44
             339.08,889.44 332.62,896.40 332.62,896.40
             332.62,896.40 199.37,896.90 198.88,896.90
             198.38,896.90 199.87,891.43 197.38,890.94
             194.90,890.44 184.96,885.96 184.96,885.96
             184.96,885.96 180.48,887.45 180.48,887.45
             180.48,887.45 169.54,777.58 169.54,777.58
             169.54,777.58 164.57,739.30 164.57,739.30
             164.57,739.30 167.06,663.23 167.06,663.23
             167.06,663.23 161.09,663.73 161.09,663.73
             161.09,663.73 155.62,668.70 155.62,668.70
             155.62,668.70 153.14,661.24 153.14,661.24
             153.14,661.24 161.00,620.00 161.00,620.00
             161.00,620.00 232.77,573.37 232.77,573.37
             232.77,573.37 278.21,573.69 278.21,573.69
             278.21,573.69 280.50,566.50 280.50,566.17
             280.50,565.85 282.46,562.58 282.79,562.58
             283.12,562.58 288.35,559.31 288.35,559.31
             288.35,559.31 294.56,556.37 294.88,556.37
             295.21,556.37 297.50,555.06 297.50,555.06
             297.50,555.06 297.50,535.77 297.50,535.77
             297.50,535.77 296.85,525.64 296.52,525.64
             296.19,525.64 294.23,516.49 293.90,516.16
             293.58,515.83 381.19,511.91 381.19,511.91
             381.19,511.91 383.80,507.66 383.80,507.66
             383.80,507.66 390.34,503.41 390.34,503.41
             390.34,503.41 407.67,502.43 407.67,502.43
             407.67,502.43 409.30,499.49 408.97,499.49
             408.65,499.49 401.78,499.16 401.78,499.16
             401.78,499.16 400.80,483.80 401.13,483.80
             401.45,483.80 394.92,482.81 394.92,482.49
             394.92,482.16 393.94,466.80 393.94,466.80
             393.94,466.80 389.03,460.91 389.03,460.59
             389.03,460.26 371.38,450.45 371.38,450.45
             371.38,450.45 363.53,456.01 363.21,456.01
             362.88,456.01 353.07,456.99 353.07,456.99
             353.07,456.99 338.69,429.86 338.69,429.86
             338.69,429.86 339.02,423.65 339.02,423.65
             339.02,423.65 342.61,418.74 342.61,418.74
             342.61,418.74 339.34,411.22 339.34,411.22
             339.34,411.22 342.61,406.32 342.61,406.32
             342.61,406.32 312.86,405.67 312.86,405.67
             312.86,405.67 285.40,336.36 285.40,336.36
             285.40,336.36 282.14,335.38 282.14,335.38
             282.14,335.38 272.66,317.73 272.66,317.73
             272.66,317.73 272.33,312.50 272.33,312.17
             272.33,311.84 347.19,255.62 347.19,255.62
             347.19,255.62 375.63,255.94 375.63,255.62
             375.63,255.29 397.20,248.10 396.88,248.10
             396.55,248.10 395.57,228.81 395.57,228.81
             395.57,228.81 403.74,226.20 401.78,224.24
             399.82,222.27 392.96,68.63 392.96,68.63
             392.96,68.63 395.24,65.03 395.24,65.03
             395.24,65.03 408.32,65.36 408.32,65.03
             408.32,64.71 410.93,67.65 410.93,67.65
             410.93,67.65 419.76,244.83 419.76,244.83
             419.76,244.83 469.12,248.10 469.12,248.10
             469.12,248.10 469.78,251.70 469.45,251.70
             469.12,251.70 421.40,265.75 421.40,265.75
             421.40,265.75 423.03,281.12 423.03,281.12
             423.03,281.12 431.86,306.94 431.86,306.94
             431.86,306.94 456.70,291.58 456.70,291.58
             456.70,291.58 468.80,292.56 468.80,292.56
             468.80,292.56 474.03,306.29 474.35,306.29
             474.68,306.29 480.39,302.86 480.39,302.86
             480.39,302.86 489.01,303.28 489.01,303.28
             489.01,303.28 492.26,302.86 492.54,302.86
             492.82,302.86 493.25,294.24 493.53,294.24
             493.81,294.24 544.97,253.82 544.97,253.82
             544.97,253.82 554.12,254.64 554.12,254.64
             554.12,254.64 656.76,180.43 656.76,180.43
             656.76,180.43 647.28,155.91 647.28,155.91
             647.28,155.91 650.55,151.99 650.55,151.99
             650.55,151.99 657.09,157.87 657.09,157.87
             657.09,157.87 659.38,154.61 659.71,154.61
             660.03,154.61 666.90,172.91 667.23,172.58
             667.55,172.26 699.92,148.39 699.92,148.39
             699.92,148.39 697.95,140.55 697.95,140.55
             697.95,140.55 720.51,123.22 720.51,123.22
             720.51,123.22 741.76,124.53 741.76,124.53
             741.76,124.53 747.64,136.95 746.99,136.95
             746.34,136.95 726.40,152.97 726.40,152.97
             726.40,152.97 714.95,153.62 714.95,153.62
             714.95,153.62 708.09,157.55 708.09,157.55
             708.09,157.55 674.09,184.03 674.09,184.03
             674.09,184.03 671.80,189.91 672.13,189.91
             672.46,189.91 662.98,190.56 662.98,190.56
             662.98,190.56 631.59,215.41 631.59,215.41
             631.59,215.41 634.21,218.68 634.21,218.68
             634.21,218.68 632.25,223.58 632.25,223.58
             632.25,223.58 605.77,243.85 605.77,243.85
             605.77,243.85 600.54,242.54 600.54,242.54
             600.54,242.54 600.86,254.31 600.86,254.31
             600.86,254.31 580.60,270.33 580.60,270.33
             580.60,270.33 584.85,282.42 584.85,282.42
             584.85,282.42 589.75,286.02 589.75,286.02
             589.75,286.02 594.65,295.50 594.65,295.50
             594.65,295.50 585.83,301.71 585.83,301.71
             585.83,301.71 581.90,306.61 581.90,306.61
             581.90,306.61 589.10,312.83 589.10,312.50
             589.10,312.17 597.60,321.98 597.60,321.98
             597.60,321.98 600.54,332.44 600.54,332.44
             600.54,332.44 600.54,336.36 600.21,336.36
             599.88,336.36 587.13,337.67 587.13,337.67
             587.13,337.67 587.13,342.57 586.81,342.57
             586.48,342.57 575.37,341.59 575.37,341.59
             575.37,341.59 565.23,345.52 565.23,345.52
             565.23,345.52 558.04,346.50 558.37,346.50
             558.69,346.50 555.75,354.34 555.75,354.34
             555.75,354.34 549.87,356.63 549.87,356.63
             549.87,356.63 554.44,373.63 554.44,373.63
             554.44,373.63 562.62,359.57 562.62,359.57
             562.62,359.57 582.38,358.90 582.38,358.90
             582.38,358.90 585.10,362.11 585.10,362.11
             585.10,362.11 603.14,361.62 603.39,361.37
             603.64,361.13 606.85,354.45 606.85,354.45
             606.85,354.45 614.76,353.96 614.76,353.71
             614.76,353.46 618.71,356.92 618.71,356.92
             618.71,356.92 644.92,355.19 644.92,355.19
             644.92,355.19 646.89,357.67 647.14,357.67
             647.39,357.67 662.71,356.68 662.71,356.68
             662.71,356.68 670.87,365.08 670.87,365.08
             670.87,365.08 670.38,372.74 670.38,372.74
             670.38,372.74 700.29,372.25 700.29,372.00
             700.29,371.75 704.98,372.74 705.23,372.50
             705.48,372.25 709.93,376.70 709.68,376.70
             709.43,376.70 711.41,467.91 711.41,467.91
             711.41,467.91 716.35,469.39 716.35,469.39
             716.35,469.39 716.85,478.29 716.85,478.29
             716.85,478.29 723.42,478.97 723.85,478.97
             724.28,478.97 729.87,482.19 730.09,482.62
             730.30,483.05 734.82,489.93 735.25,489.93
             735.68,489.93 739.33,496.38 739.33,496.38
             739.33,496.38 739.54,535.07 739.54,535.07
             739.54,535.07 734.82,535.07 733.74,535.28
             732.67,535.50 731.81,560.86 731.81,560.86
             731.81,560.86 728.15,562.80 728.15,562.80
             728.15,562.80 727.51,565.59 726.22,564.73
             724.93,563.87 849.23,564.05 849.66,564.05
             850.09,564.05 851.80,567.57 851.80,567.38
             851.80,567.20 852.92,597.85 852.92,597.85
             852.92,597.85 852.92,604.21 852.92,604.21
             852.92,604.21 841.15,608.32 841.15,608.32
             841.15,608.32 842.08,618.78 842.46,618.78
             842.83,618.78 844.60,626.06 844.60,626.06
             844.60,626.06 846.48,659.52 846.48,659.52
             846.48,659.52 846.86,686.59 846.86,686.96
             846.86,687.34 844.98,719.67 844.98,719.30
             844.98,718.92 843.47,741.85 843.47,741.85
             843.47,741.85 839.72,770.05 839.34,770.05
             838.96,770.05 835.20,809.14 835.20,809.14
             835.20,809.14 831.44,840.35 831.44,840.35
             831.44,840.35 831.44,856.51 831.44,856.51
             831.44,856.51 823.55,855.76 823.55,855.76
             823.55,855.76 821.67,863.66 821.67,863.66
             821.67,863.66 810.77,868.17 810.77,868.17
             810.77,868.17 799.49,877.19 799.49,877.19
             799.49,877.19 796.86,883.58 795.73,883.58
             794.60,883.58 642.72,883.96 642.72,883.96
             642.72,883.96 637.84,870.80 637.84,870.42
             637.84,870.05 634.08,850.50 634.83,850.12
             635.58,849.75 633.33,831.32 633.70,831.32
             634.08,831.32 626.94,826.81 626.94,826.81
             626.94,826.81 626.18,811.40 626.18,811.02
             626.18,810.65 630.69,808.39 630.69,808.02
             630.69,807.64 629.19,791.85 629.19,791.85
             629.19,791.85 619.42,797.11 619.42,797.11
             619.42,797.11 387.80,800.95 387.80,800.95
             387.80,800.95 384.82,810.39 384.82,810.39
             384.82,810.39 377.86,814.37 378.36,814.37
             378.85,814.37 375.87,838.23 375.87,838.23
             375.87,838.23 372.39,856.13 372.39,856.13
             372.39,856.13 371.89,865.08 371.89,865.08
             371.89,865.08 362.45,869.56 362.45,869.56
             362.45,869.56 354.00,880.99 354.00,880.99" />
</svg>
