<?xml version="1.0" encoding="utf-8"?>
<!-- Generator: Adobe Illustrator 19.2.1, SVG Export Plug-In . SVG Version: 6.00 Build 0)  -->
<svg version="1.1" xmlns="http://www.w3.org/2000/svg" xmlns:xlink="http://www.w3.org/1999/xlink" x="0px" y="0px"
	 viewBox="0 0 315 148" style="enable-background:new 0 0 315 148;" xml:space="preserve">
<style type="text/css">
	.st0{fill:#FFFFFF;}
	.st1{display:none;}
</style>
<g id="Layer_3">
	<path d="M81.7,69.6c-0.3,0.1-6.8,3.3-6.8,3.3l-7.4,4.3l-5.9,4.3l-5.7,4l-5.4,4.3l-1.8,1.7l-4.4,5.1l-3.3,4.2l-2.5,3.9l-1.9,3.8
		l-1.3,3.8l-1,3.8l-0.2,3.7l0,3.9l0.8,4.1l2.1,4.3l2.8,3.4l3.1,2.4l4.2,2.2l4.4,1.7l5.5,1.6l8.4,0.7l7.5,0.1l5.6-0.3l9.1-1.8
		l6.8-1.7l9.2-3.6l10.4-4.7l8.9-4l8.5-4.9l95.5-59.9l2.2-1.5l2.3-1.9l3.5-3.1l4.8-4.2l3.1-3.1l3.5-4.1l3.7-4.2l0.4-0.3l0.1,2.2
		l0.1,1.2l0.6,0.9l1.2,0.2l0.8-0.3l4.7-3.2l1.1-12.5l0.3-0.3l19.4,1.4l1.6-1.1l1.1-1v-0.3l-15.3-2.8l-1-0.2l1.1,0.1l0.3-0.9
		l-0.2-0.5l-0.4-0.4l-0.5-0.4h-0.7l-0.7,0.1l0.1-0.5l0.4-0.4l0.5-0.1l0.7-0.3l0.3-0.4l0.1-0.5l-0.2-0.3c0,0-0.5-0.2-0.6-0.2
		c-0.1,0-1.2,0-1.2,0l-0.5,0.4l-0.6,0.6l-0.4,0.8l-0.1-0.8l0.1-0.9l0-0.7l-0.3-0.7l-0.5-0.2l-0.5,0.5l-0.2,0.5l0,0.8l0.1,0.6l0,0.5
		l-2.2-0.6l-1.2-0.3l-1.4-1.2l-0.6-0.6v-1l0-2.5l-1.4,0l-1,0.4l-0.3,1.5l0,0.5l-3.2-1.2l-0.1-0.4l-4.9-0.2l-0.5-0.5l-11.9-0.1
		l-4.4,0.9l-4.7,1l-10,2.7l-12.1,3.7l-4,1.6l0.4-20l-0.4-0.8l-1.2-0.1l-2.8,0.1l-8.5,1.7l-11.9,2.6l-11.6,2.7l-7,1.8l-0.7,0.5
		l-0.6,0.6l-0.7,0.8l-0.2,0.6l-0.1,0.6l0,24.5l-15.7,5.7l-12.8-2.5l-2.4,0.2l-3.2,0.4l-1.5,0.6l-1.6,0.9l-0.4,0.8l0.1,0.3l13.2,2.6
		L117,53.4l-13.6,5.2L95,63L81.7,69.6z"/>
	<path class="st0" d="M151.9,17.6c0.1,0,1.8,0.5,1.8,0.5l0,2.5l-1.7-0.4L151.9,17.6z"/>
	<polygon class="st0" points="154.2,18.2 154.2,20.7 157.5,20.9 157.5,18.3 	"/>
	<polygon class="st0" points="158.4,20.9 158.4,18.4 161.8,18.1 161.8,20.6 	"/>
	<path class="st0" d="M162.6,17.9c0,0.1,0,2.5,0,2.5l2.6-0.4l0-2.6L162.6,17.9z"/>
</g>
<g id="Layer_4">
	<polygon class="st0" points="155.9,55 155.7,57.1 176.1,62 178.7,60.8 180,60.1 181.3,59.1 182.4,58.1 182.6,57.5 183,56.8
		179.8,57.6 177.5,58.7 176.4,59.3 176.1,59.5 	"/>
	<polygon class="st0" points="105,57.7 94.2,63.5 90.4,66.2 86.8,69.1 82.3,74.3 90.2,72.5 100.9,69.1 108.6,66.6 130.2,59.6
		147.6,53.3 171.9,44.4 211.4,28.9 236.8,19.1 243.5,16.5 245.1,15.9 246.5,15.3 249,15.4 230.4,23.2 212.3,30.5 174.2,45.4
		147.4,55.3 130.6,61.4 109.6,68.4 91.1,74.2 83.3,75.9 76.8,77.3 85.6,67.7 90.5,63 103.7,56.8 	"/>
</g>
</svg>
