<?xml version="1.0" encoding="utf-8"?>
<!-- Generator: Adobe Illustrator 19.2.1, SVG Export Plug-In . SVG Version: 6.00 Build 0)  -->
<svg version="1.1" id="Layer_1" xmlns="http://www.w3.org/2000/svg" xmlns:xlink="http://www.w3.org/1999/xlink" x="0px" y="0px"
	 viewBox="0 0 315 148" style="enable-background:new 0 0 315 148;" xml:space="preserve">
<style type="text/css">
	.st0{fill:#FFFFFF;}
</style>
<polygon points="223.2,53.5 216.7,49.5 120.2,102 114.5,108 108,114.5 102.7,120.3 96.7,125.3 89.4,129.3 86.6,129.5 84.2,129.3 
	83,128.1 81.9,126.3 81.9,124.4 83,120.9 84.7,117.3 87.1,113.5 90,109.3 93,105.9 101.7,97 100.2,46.9 103.9,42.9 103.9,30.4 
	113,20.6 120.5,36.3 157,36.4 158.6,34.6 159,34.2 160,33.1 161.5,31.1 163.9,28.4 167.4,26 170.9,25 174.1,25 176.1,26.4 178,32.8 
	178.6,36.4 215.2,36.5 215.2,33.9 224.4,25 232.6,42.9 "/>
<polygon points="185.3,17.8 189.1,22.6 173.2,30.3 "/>
<rect x="86.5" y="63.2" transform="matrix(0.6728 -0.7398 0.7398 0.6728 -5.6352 116.711)" class="st0" width="85.3" height="3"/>
<rect x="104.2" y="68.6" transform="matrix(0.6596 -0.7516 0.7516 0.6596 -1.5878 136.7374)" class="st0" width="92" height="3"/>
</svg>
