<?xml version="1.0" standalone="no"?>
<!DOCTYPE svg PUBLIC "-//W3C//DTD SVG 20010904//EN"
 "http://www.w3.org/TR/2001/REC-SVG-20010904/DTD/svg10.dtd">
<svg version="1.0" xmlns="http://www.w3.org/2000/svg"
 width="1000.000000pt" height="1000.000000pt" viewBox="0 0 1000.000000 1000.000000"
 preserveAspectRatio="xMidYMid meet">
<metadata>
Created by potrace 1.14, written by Peter Selinger 2001-2017
</metadata>
<g transform="translate(0.000000,1000.000000) scale(0.100000,-0.100000)"
fill="#000000" stroke="none">
<path d="M915 8450 c-7 -11 -3 -6900 3 -6901 18 -4 8149 -5 8159 -1 9 3 12
816 11 3453 0 1897 -3 3450 -6 3450 -23 5 -8165 3 -8167 -1z m7661 -499 c9 -1
11 -760 10 -2953 l-1 -2953 -3575 0 c-1966 -1 -3580 1 -3586 3 -14 4 -17 5894
-4 5902 7 4 7118 5 7156 1z"/>
<path d="M3160 7199 c0 -5 11 -26 24 -47 25 -39 961 -1602 980 -1637 6 -11 75
-127 154 -257 l143 -238 -247 -407 c-136 -225 -254 -421 -264 -438 -9 -16 -70
-118 -135 -225 -498 -823 -693 -1150 -687 -1151 9 -1 993 -1 1013 0 10 1 42
50 84 129 38 70 76 141 85 157 9 17 47 89 85 160 37 72 71 135 75 140 4 6 35
63 69 127 33 64 69 131 79 150 10 18 45 83 77 143 32 61 68 128 80 151 13 22
69 127 125 232 57 106 104 191 106 190 1 -2 48 -88 104 -193 56 -104 117 -217
135 -250 17 -33 58 -109 90 -170 32 -60 66 -123 75 -140 10 -16 41 -75 70
-130 29 -55 99 -185 155 -290 56 -104 126 -235 155 -290 29 -55 56 -104 61
-109 10 -11 1059 -14 1066 -3 3 5 -2 16 -10 25 -7 9 -17 24 -20 32 -4 8 -26
45 -49 82 -24 38 -119 191 -213 340 -93 150 -177 284 -186 298 -9 14 -128 205
-265 425 -136 220 -264 425 -283 455 -20 30 -41 64 -47 75 -6 11 -76 125 -156
253 l-145 233 228 381 c126 210 229 385 229 390 0 4 5 8 10 8 6 0 10 4 10 9 0
5 182 313 404 684 223 371 409 684 415 695 11 20 8 20 -506 19 l-517 -2 -58
-110 c-33 -60 -91 -171 -130 -245 -39 -74 -87 -166 -108 -205 -20 -38 -63
-119 -95 -180 -32 -60 -72 -137 -90 -170 -18 -33 -63 -118 -100 -190 -38 -71
-86 -161 -107 -200 -20 -38 -59 -111 -85 -162 -26 -51 -51 -89 -54 -85 -3 4
-41 75 -84 157 -43 83 -99 191 -125 240 -26 50 -82 158 -125 240 -95 183 -182
350 -245 470 -26 50 -85 162 -130 250 -46 88 -88 168 -94 177 -9 15 -54 16
-518 16 -310 0 -508 -3 -508 -9z"/>
</g>
</svg>
