<?xml version="1.0" encoding="utf-8"?>
<!-- Generator: Adobe Illustrator 19.2.1, SVG Export Plug-In . SVG Version: 6.00 Build 0)  -->
<svg version="1.1" id="Layer_1" xmlns="http://www.w3.org/2000/svg" xmlns:xlink="http://www.w3.org/1999/xlink" x="0px" y="0px"
	 viewBox="0 0 315 148" style="enable-background:new 0 0 315 148;" xml:space="preserve">
<circle cx="104.6" cy="132.8" r="7.6"/>
<circle cx="124.9" cy="133.6" r="7.6"/>
<circle cx="145" cy="133.5" r="7.6"/>
<circle cx="166.1" cy="133.4" r="7.6"/>
<circle cx="189.2" cy="133.5" r="7.6"/>
<circle cx="212.1" cy="133.8" r="7.6"/>
<circle cx="229.9" cy="124.3" r="6.6"/>
<circle cx="89.8" cy="126.9" r="7.2"/>
<polygon points="85.9,126.6 74.9,126.7 74.3,121.3 75.5,118.9 67.3,118.8 67,102.6 67.3,101.3 69.2,100.8 69.8,100.4 72.4,100.3 
	75.4,98.6 85,98.5 91.5,100.2 95.6,100.2 96.6,99.2 101.5,99.3 101.8,99 110.6,99 110.9,99.3 115.1,99.3 128,97.5 112.8,97.5 
	112.5,95.8 111.8,89.9 111.8,86.7 112.8,83.6 111,83 109.2,83.1 108.2,83.2 106.1,81.5 104.9,79.3 102,76.9 102,74.4 103.7,72.7 
	100.4,70 101.8,68.5 105.9,70 110,66 108.1,64.2 130.1,41.5 135.7,39.4 139.1,36.6 158.6,17.7 162.6,13.9 166.2,11.8 170.3,9.6 
	172.9,8.8 171.6,12.1 168.1,17.3 163.3,22.6 156.8,29.7 148.1,38.3 145.2,41.8 146,41.7 149,39.4 159.2,30.8 165.1,24.7 168.3,21.3 
	170.8,19 174.3,16.9 178.6,14.4 182.3,12.8 180.7,16.6 177.5,21.7 173.9,25.7 168.8,30.4 159.7,39.2 154.4,45.2 155.7,44.8 
	156.4,44.6 158.8,42.3 159.8,42 177.9,25.3 180,23.5 183.8,20.6 186.8,18.8 191.2,16.9 191.9,16.9 191,19.1 188.6,23 185.4,27.2 
	182.3,30.3 167.8,43.7 167.4,44.3 164.5,47.1 164.8,47.2 168.8,46.3 187.6,29.2 191.4,25.8 195.3,23.6 198.5,22.2 201.1,21.2 
	198.8,25.8 196.5,29.3 193.3,32.6 190.8,35 174.1,50 173.4,51.3 172.3,52 171.1,52.8 169.1,54.6 167.7,57.4 161.5,62.8 161.5,64.4 
	162,65.2 158.1,68.5 158,69.1 157.6,69.6 156.8,69.6 154.5,71.6 155.1,72.4 160.1,72.8 159.4,72.2 160.3,71.5 174.3,69 203.8,65.7 
	215.3,64.8 230.8,63.4 235.9,63 240.7,63.1 248.4,63.3 251.3,63.6 254.2,64.3 256,65.4 257.2,67.2 259.9,71.7 262,76.7 263.3,81.5 
	263.9,85.8 264.3,90.8 263.8,91.6 263,91.6 246.8,94.3 241.9,94.7 233.9,95.2 224.3,96 220,96 228.5,98.4 229,98.3 229.6,97.6 
	235.1,97.4 236.7,97.8 237.5,98.9 237.4,101.3 239.2,102.5 241.9,103.9 242,113.1 242.8,114.5 243.7,115.8 243.6,118.8 243,120.4 
	242.5,121.5 237.8,121.5 234.5,125.7 229.8,128.4 212.5,128.8 208.6,133.3 103.3,132.7 "/>
<rect x="104" y="139" transform="matrix(1 8.328481e-003 -8.328481e-003 1 1.1755 -1.3126)" width="108.4" height="3"/>
<rect x="83.7" y="134.2" transform="matrix(0.9095 0.4158 -0.4158 0.9095 64.9987 -27.1257)" width="22.1" height="3"/>
<polygon points="236.4,124.7 210.9,139.9 212.4,142.4 236.1,128.7 "/>
<rect x="79.2" y="126.8" transform="matrix(-0.5541 -0.8325 0.8325 -0.5541 22.4277 268.6994)" width="7.9" height="3"/>
</svg>
