<?xml version="1.0" encoding="utf-8"?>
<!-- Generator: Adobe Illustrator 19.2.1, SVG Export Plug-In . SVG Version: 6.00 Build 0)  -->
<svg version="1.1" id="Layer_1" xmlns="http://www.w3.org/2000/svg" xmlns:xlink="http://www.w3.org/1999/xlink" x="0px" y="0px"
	 viewBox="0 0 315 148" style="enable-background:new 0 0 315 148;" xml:space="preserve">
<path d="M48.2,81c0.3-0.1,23.6-6.8,23.6-6.8h1.7l2.3-1.2l0.5-1.6l3.1-0.2l1.2-0.7l5.5,1.3l19.7-5.5l17.8-2.8l1.3-1.2l2.7-1.6
	l10.6-0.6l8.8,0.1l2.1,1l2.3,0.1l2.5-3.4l-45.1-0.8l-0.3-1.5l46.9,0.1l0.7-0.5l-5.8-0.1v-0.4l-4.4-0.2l0.2-1.5h11.4l4.7-5.6l3.1-0.1
	l1.8-0.8h3.3v-0.4h2.3l0,2.8l1,0l0-1l19.5,0.1l8.6,12.6l49.1,0.1l-0.1,0.8l7.6-0.1l0.1,3.9l0.5,1.4l-2.4,16.6l2.8,2.5l3.2,3.9
	l1.3,2.5l1,3l0.2,3.3l-3.4,0.3l-8.2-3.6l0.3,2.8l-1.8,4.9l-9.5,6.8l-148,0.5L68.2,99.8l-0.3-2.3l-18-14.8L48.2,81z"/>
<circle cx="132.2" cy="109.8" r="10.8"/>
<circle cx="105.4" cy="109.6" r="10.8"/>
<circle cx="159" cy="109.7" r="10.8"/>
<circle cx="189" cy="109.7" r="10.8"/>
<circle cx="217.7" cy="109.7" r="10.8"/>
<polygon points="68.4,99.4 99.3,121.6 221.6,121.9 241.9,109.5 239.1,107.4 220.9,118.9 102.8,118.8 71.5,96.8 "/>
</svg>
