<?xml version="1.0" encoding="utf-8"?>
<!-- Generator: Adobe Illustrator 19.2.1, SVG Export Plug-In . SVG Version: 6.00 Build 0)  -->
<svg version="1.1" id="Layer_1" xmlns="http://www.w3.org/2000/svg" xmlns:xlink="http://www.w3.org/1999/xlink" x="0px" y="0px"
	 viewBox="0 0 315 148" style="enable-background:new 0 0 315 148;" xml:space="preserve">
<style type="text/css">
	.st0{fill:none;stroke:#FFFFFF;stroke-width:3;stroke-miterlimit:10;}
</style>
<polygon points="84.1,140.3 244.5,141.8 246.2,139.8 247.6,137 248.9,134.4 250.5,131.1 252,127.9 252.9,125.4 224.2,125.1 
	222.1,113.5 223.3,107.5 204.9,107.2 203.3,99.8 194.8,99.4 195.7,98.6 194.8,91 191.8,90.2 187.3,89.9 187.2,86.2 179.8,85.8 
	177.2,85.7 176.8,83.8 173.9,83.7 173.7,83.4 177.6,80.9 174.4,66 169.5,64.1 177.3,60.5 180.4,60.4 180.5,59.8 177.9,59.5 
	178.1,55.4 171.7,55.5 171.5,58.9 171.2,59.4 169,59.4 169.5,54.4 187.3,52.7 187.6,51.8 180.1,51.5 165.1,50.7 163.6,45.4 
	162.6,45.2 163.6,34 179.8,32.8 180,31.5 163.6,31.1 163.2,22.2 170.3,21.7 170.6,21 163.1,20.9 163,16.4 169.8,15.8 169.6,15.2 
	163,15.2 162.4,4.2 161,4.1 160.1,15.1 153.9,15 154.1,15.5 159.8,16.4 159.5,20.8 152.8,20.6 153.3,21.4 159.4,22.2 159,31 
	143,30.9 143.1,32.3 151.3,33.2 149.1,34.8 148.1,36.7 147.7,39.5 147.9,41.3 148.9,43.4 148.7,44.5 148.5,44.9 145.6,44.9 
	143.6,50.5 141.4,50.5 128.6,50.9 128.6,51.6 138.8,53.4 139.7,58.7 138.3,58.8 137.9,58.3 138,54.6 136.1,54.4 131.5,54.4 
	131.5,57.9 131.3,58.7 128.6,58.8 128.7,59.4 131.3,59.6 138.3,63.1 138,63.7 133.7,65.3 128.8,81.6 111.7,81.4 113.5,88.4 
	107.9,88.4 104.6,97 102.7,97.5 96.6,104.7 87.6,106.9 77.4,105.2 73.1,105.1 68.4,104.9 65.7,104.8 65.1,105.4 65.3,106.4 
	76.2,125.3 78,129 80.2,133.2 "/>
<path class="st0" d="M65,104.6c8.8,0.5,22.3,1.5,38.5,4.1c34.4,5.6,40.4,11.8,70.1,15c13.5,1.5,24.9,1.6,47.3,1.8
	c14.6,0.1,26.7-0.1,35.3-0.4"/>
</svg>
