<?xml version="1.0" encoding="utf-8"?>
<!-- Generator: Adobe Illustrator 19.2.1, SVG Export Plug-In . SVG Version: 6.00 Build 0)  -->
<svg version="1.1" id="Layer_1" xmlns="http://www.w3.org/2000/svg" xmlns:xlink="http://www.w3.org/1999/xlink" x="0px" y="0px"
	 viewBox="0 0 315 148" style="enable-background:new 0 0 315 148;" xml:space="preserve">
<style type="text/css">
	.st0{fill:#515151;}
	.st1{fill:#727272;}
</style>
<path d="M143.6,80.9l-0.9,4.9l-1.3,3.5l-0.5,1.3l0.4,1l0.8,1.2l0.8,1l0,0.8c0,0-0.2,0.2-0.4,0.4s-0.1,0.7-0.1,0.7l0.2,0.7l1,3.4
	l1.1,2.7l1.2,2.8l1.9,4.2l1.2,1.8l1.5,1.8l1,1.2l2.1,1.6l2,1.6l1.7,3l0.9-1l1.4-0.9l1.7-0.7l1.1-0.2l1-0.2l1.4-0.1l0.8-0.4l0.4-0.1
	l0.5,0.8l0.3,0.5c0,0-1.1,0.9-1.3,1s-2,1.6-2,1.6l-1.5,1.4l-1,0.8l-1,0.8l-1,0.2l-1.5-2.2l-0.3-1l-0.5-2.6l-1.2-0.8l-0.1,2.7
	l0.6,1.6l0.4,1.1l1,1.3l1.1,1.3l0.8,0.7l0.8,0.4l0.4,0.2l0.5,0l0,0.8l0.8,1.1l1.7,2.7l1.9,3.2l1.3,1.9l0.8,0.9l0.5,0.3l0.6-0.3
	l0.5-0.1l0.8,2.1l0.8,1.7l1.1,1.5l1.6,1.6l2.4,1.4l3.2,1.1l2.1,0.1l2.6-0.3l1.4-0.4l2.8-0.6l2.3-0.8l-3.8-3.7l-1.7-0.7l-1.3-0.5
	l-1.3-0.5l-0.4-0.5l-1.3-0.8l-1.6-1.6l2.2,0.1l2.1,0l1.8,0l2,0l1.7,0.1l-0.8,1.2l-1.3,2.8l-0.6,0.9l3.4,3.6l2.2-0.9l2.2-1l1.4-0.8
	l1.2-0.9l1.4,0.1l1.8-0.1l1-0.3l0.7-1l0.9-1.9l0.9-2.6l0.5-0.6l1.3-0.1l0.8-0.2l0.5-0.4l1.1-2.8l0.8-2.4l0.5-1.8l0.3-1.9l0.3-1.9
	l0.1-1.2l-0.5-0.8l-0.4-0.5v-0.8l0.6-1.1l0.4-1.2l0.4-1.1v-1.1l-0.1-0.5l0.8-1.1l0.8-1.3l0.2-0.9l0.4-0.9l0.5-0.4l0.4-1.5l0.2-1
	l0.1-1.3l0.4-0.2l0.7,0.2c0,0,0.2,0.2,0.3,0.3s0.8,0.2,0.8,0.2l0.3-0.3l0.6-0.8l0.6-1.5l0.2-1l0.1-0.8l0-0.8l-0.2-0.7l-0.5-0.7
	l-0.5-0.5l-0.2-0.4l0.4-0.3l0.2-0.8l0.4-1.1l0.3-0.8l0.8-2.1l-0.4-0.8l0.7-1.4l-4,0.2l-3.8,0.1l-0.2,2.2l0.3,0.7l0.2,0.7l-0.8,1.2
	l-0.8,1.4l-1.1,1.1l-0.6,1.1l-0.6,0.9l-0.3,0.7l-0.4,0.4l-1.2-0.2l-0.5-0.8l-0.9-0.5l-0.6-0.4l-0.4-0.5l-0.1-0.6l-0.9-0.8l-0.9-0.3
	l-0.6-0.3l-0.5,0.1l-0.4,0.3l-0.2-0.3l-1.4-1.2l-1.4-1.2l-1.6-1.1l-1.1-0.8l-1-0.8l-2.3-1.8l-1.8-1.2l-1.6-2.4l-1.7-0.4l-1.4-0.7
	l-7.1-2.4l-15.1-2.7l-3.6-0.4l4.5,10.1l2.2,0.2l1.6,0.5l2.6,1l1.8,0.5l4.7,1.7l2.7,1.1l2.1,0.7l1.9,0.8l2.2,1.6l2,1.6l2,1.8l1.9,1.8
	l1.8,1.6l0.5,0.4l-0.4,0.8l0,0.6l0.7,0.2l0.9,0.5l0.5,0.4l0.7-0.2l0.6-0.2l0.6,0.1l1.1,0.8l0,1l0.2,1.2l-0.3,1.2l-0.5,1.4l-0.7,2
	l-0.5,1.8l-0.8,2.2l-0.6,1.7l-0.8,2.2l-0.7,0.4l-1.6,0.1c0,0-0.8,0-1.1,0s-1.5,0-1.5,0s-0.5,0.4-0.9,0.3s-0.6-0.3-0.6-0.3l-1.3-0.3
	l-1.4,0l-0.7-0.3c0,0-0.6-0.2-0.8-0.2s-0.9,0-0.9,0l-1-0.1l-0.6-0.2l-0.9,0l-1,0l-0.9-0.2c0,0-1.2,0-1.3,0s-0.4,0.1-0.4,0.1l-0.9,0
	l-0.5-0.2c0,0-0.6,0.2-0.8,0.3s-0.9,0.1-1.1,0.1s-0.7-0.2-0.7-0.2l-0.7-0.5l-0.5-0.8l0.1-1.1c0,0-0.3-0.8-0.5-0.9s-0.7-0.7-0.7-0.7
	l-0.4-0.5l0.2-1.6l-0.4-0.6l-1-1.4c0,0-1-0.9-1.1-1c-0.1-0.1-0.6-0.8-0.6-0.8l-0.2-0.2c0,0,0-0.4,0-0.4s0-1.1,0-1.1l0.2-2.4l0.7-0.8
	c0,0,0.2-1.1,0.2-1.3s0.2-2.7,0.2-2.7l-0.1-1.2l-0.8-0.8l-0.6-4.8l-0.8-2.3l-0.9-2.5l-0.5-1.7l-4.6-10.9L143.6,80.9z"/>
<path d="M111,65.8c0.4-2.8,1-6.8,2.2-11.5c2-8.5,3.9-16.6,8.7-24.3c6.3-10.3,15-15.5,19.2-18c16.1-9.5,32.1-8.7,39.4-8.3
	c9.4,0.6,28.5,1.7,44.1,16.9c16.9,16.4,18,37.9,18.1,43l0.7,1.1l1.3,1l0.5,1.1l0.3,1.8c0,0,0.2,1.1,0.2,1.5s0,0.6,0,0.6l-0.2,0.6
	l-0.3,0.5l-0.8,0.2l-1.2,0.3l-1.2,0.4l-1.9,0.3l-1.6,0.3l-1.2,0.4l-1.5,1.9l-1.4,2.5l-1.7,2.5l-1.3,2.6l-1.4,1.8l-2.1,2.7l-1,1.1
	l-1.5,1.2l-1.1,0.6l-2.4,0.9l-1.9,0.4l-1.7,0.5l-2.9,0.4l-3.7,0.2l-4.2-0.2l-6.3-1.1l-4.1-1l-5-1l-2.5-0.6l-1.6-0.3l-4.7-1.4l-6-1.6
	l-5.8-1.5l-8.1-1.5l-3.9-0.4l-6.2-0.3l-5.2,0.3l-2.6,0.2l-4.1,0.4l-4.4,0.6l-5.6,1l-3.7,1l-1.7,2.8l-2,2.8l-1.6,2.5l-1.5,2.4
	l-1.5,1.8l-1.8,1.6l-1.7,1.2l-1.2,0.1l-1.9-0.3l-1.2-1.1l-0.8-1.2l-1-2.3l-0.4-2.6v-1.7l0.8-2l0.4-1l-0.2-7.5l0.2-4.2l0.2-7.6
	L111,65.8z"/>
<path class="st0" d="M245,72.5l-3.2,0.9l-3,0.3c0,0-1.6,0.5-1.8,0.8s-1.2,1.7-1.2,1.7l-0.7,1.2l-0.8,1.8l-1.2,1.6l-0.6,1.1l-1,1.8
	l-0.9,1.3l-1.6,2.2l-1.6,1.8l-1.2,1.2c0,0-0.8,0.5-1.1,0.7c-0.3,0.2-1.4,0.8-1.4,0.8l-2.6,0.7l-2.3,0.6l-3.9,0.4h-4.1h-3.2l-3.2-0.5
	l-3.4-0.7l-4-0.8l-1.9-0.5l-3.8-0.7l-2.6-0.8l-2.9-0.6l-3.6-1l-4.4-1.1l-5-1.3l-3.2-0.7l-4.6-0.8l-6.6-0.9l-3.5-0.2l-4.3-0.1
	l-4.6,0.4l-3.9,0.5l-6.4,1l-5.3,0.8l-3.3,0.8l1.4-2.9l2.1-1.2l2.7-1.9l2.2-1.3l4.6-1.5l3.4-0.5l4-0.7l4-0.7l5.4-0.6l3.1-0.4h5.2
	l4.4-0.7l3.5,1.1l3.6,0.8l5.5,1.4l7.3,1.6l8.5,1.9l4.1,0.6l6,0.6l4.5-0.2l3.8-0.6l3.1-0.8l2.4-1.5l1.9-1.8l1.5-2.4l1-2l0.6-1.2
	l4.9-0.1l4,0l4.1,0l3.1,0.2L245,72.5z"/>
<path class="st1" d="M110.2,88.7l-0.2,4.5l0.6,0.6l0.8,0.1l0.5,0l0.9,0l0.6-0.2c0,0,0.3-0.2,0.4-0.3s0.7-0.6,0.7-0.6
	s0.5-0.8,0.7-0.9s0.4-0.6,0.4-0.6l0.5-0.8c0,0,0.5-0.6,0.6-0.7s0.4-0.7,0.4-0.7l0.2-0.4l0.3-0.5l0.2-0.7l0.3-0.5l0.3-0.5
	c0,0,0.5-0.9,0.5-1c0-0.1,0.6-0.8,0.6-0.8l0.3-0.5l0.2-0.6l0.3-0.7l0.6-0.8l0.7-1.1c0,0,0.8-0.9,0.8-1.1s0.9-1.3,0.9-1.3l0.9-1.2
	l0.8-0.9l1.3-1.5l0.8-0.8l0.9-0.5c0,0,1.2-1.1,1.3-1.2s1.6-0.7,1.6-0.7l0.8-0.5l1.6-0.5l1.4-0.5c0,0,1-0.5,1.4-0.5s1.8-0.3,1.8-0.3
	l1.2-0.4l2-0.4l1.5-0.1l1.8-0.3l1.1-0.3l1.3-0.1l1.1-0.1l2.4-0.4l1.2-0.2c0,0,1.1,0,1.3,0s1.3-0.2,1.3-0.2l1.2-0.2l1.4-0.1
	c0,0,1.1-0.1,1.6-0.2s1.7-0.1,1.7-0.1l0.9-0.1l2.4-0.3c0,0,1.6-0.1,1.7-0.1s2.8-0.3,2.8-0.3s1.9-0.2,2.1-0.2s1.4-0.1,1.4-0.1l1.9,0
	c0,0,1.2-0.1,1.5-0.1s2-0.2,2-0.2s1.2,0,1.4,0s1.7,0,1.7,0l3.9-0.4c0,0,0.5,0,0.7,0s0.8,0,1,0s1.6-0.1,1.6-0.1l1-0.1l1.4,0
	c0,0,1.5,0,1.8,0s1.4,0,1.6,0s2-0.2,2-0.2h1.4c0,0,1.4-0.2,1.6-0.2c0.2,0,1.4-0.1,1.4-0.1l2.5-0.1l3.1,0l3.8,0l1.9-0.2l2.1,0l1.6,0
	h1.6l1.8,0l1.5,0h1.4h1.8l0.9,0c0,0,1.8-0.1,2-0.1s2,0,2.2,0s1.6,0,1.7,0s1.5,0,1.5,0h1.7h1.3l1.6,0.1l2.6,0h1.8c0,0,0.8,0,0.9,0
	s1.3,0,1.3,0h0.6l0.8,0.2l0.8,0.6l0.3,0.7l0.6,0.9l0.2,0.8l0.2,1l0.2,0.7v1.2l0,0.9l0,0.9l-0.6,0.8c0,0-0.5,0.4-0.6,0.4
	s-0.9,0.1-1.1,0.1s-3.5-0.3-3.5-0.3l-0.5,0l-1.9-0.3c0,0-1.6,0-1.8,0s-0.6,0-1,0c-0.4,0,0.2,0-1.1-0.1c-1.3-0.1-1-0.1-1.6-0.1
	s-2.8,0-2.8,0s-1.2,0.1-1.4,0.1s-0.6,0-1.1,0s-1.7,0-1.7,0h-1.7l-1.8,0.1l-2.6,0.1l-1.8,0l-2.6,0c0,0-1.7,0-2.2,0s-2.4,0.1-2.4,0.1
	h-2.2c0,0-1.6,0-1.8,0s-3.4,0.1-3.4,0.1s-2.2,0.1-2.4,0.1s-2.2,0-2.2,0h-2.1l-1.6,0l-2.2,0.1l-1.8,0l-1.3,0.1l-2.1,0
	c0,0-1.7,0.1-1.9,0.1s-1.4,0.1-1.6,0.1s-1.9,0.1-1.9,0.1l-1.8,0.2l-1.9,0.1c0,0-1.3,0.1-1.6,0.1c-0.4,0-6.1,0.5-6.1,0.5l-3.1,0.2
	l-2.9,0.2c0,0-2.4,0.2-2.6,0.2c-0.2,0-4.3,0.4-4.3,0.4s-2,0.2-2.4,0.2s-2.6,0.3-2.6,0.3l-2.4,0.2l-1.5,0.3l-4,0.6c0,0-1.8,0.3-2,0.3
	s-2.1,0.6-2.1,0.6l-2.4,0.8c0,0-2.1,0.7-3.6,1.4c-0.3,0.2-1.3,0.6-1.4,0.7c-0.1,0.1-1.6,1.1-1.8,1.2s-1.4,1.1-1.4,1.1l-1,1.3
	l-1.2,1.4l-0.5,1.1l-1.3,1.7l-0.8,1.2l-0.8,1l-0.7,1l-0.8,1.3l-1.2,1.7l-0.4,0.7l-0.8,1.1l-1.4,1.6l-0.8,0.9l-0.9,0.8l-1,0.6
	c0,0-0.6,0.5-0.8,0.5s-1.5,0.1-1.5,0.1l-2-0.5l-0.7-0.6l-1-0.9l-0.4-0.8l-0.6-1.5l-0.2-0.9l-0.3-1.4l0-0.9l0-0.9l0-0.7l0.3-0.8
	l0.5-1.1L110.2,88.7z"/>
</svg>
