<?xml version="1.0" encoding="utf-8"?>
<!-- Generator: Adobe Illustrator 19.2.1, SVG Export Plug-In . SVG Version: 6.00 Build 0)  -->
<svg version="1.1" id="Layer_1" xmlns="http://www.w3.org/2000/svg" xmlns:xlink="http://www.w3.org/1999/xlink" x="0px" y="0px"
	 viewBox="0 0 315 148" style="enable-background:new 0 0 315 148;" xml:space="preserve">
<style type="text/css">
	.st0{fill:none;stroke:#FFFFFF;stroke-width:3;stroke-miterlimit:10;}
	.st1{fill:#FFFFFF;}
</style>
<path d="M72.5,115.1c-3.3,0.4-8.6,0.5-14.8-1.3c-4.6-1.4-14.3-4.2-18-12.9c-2.7-6.2-0.9-12.4-0.3-14.3c3.6-10.5,15.1-15.5,21.6-18.4
	c1.9-0.8,3.6-1.4,4.8-1.8c1.6-0.4,3.2-0.9,4.8-1.3c8.1-1.2,16.2-2.3,24.3-3.5l145-19l5.3,0.3l8.3,0.8l1.3,0.3l7-17.8l0.5-0.3
	l2.3-0.2l0.8,0l0.3,0.8l0,1.9l-0.8,4.7l-1.7,7.8l0.1,1.3l-1.8,0.4l0,0.9l1-0.3l1.7,0.8V47l0.3,0.8l1.4,1.4l1.7,2l0.9,1.9l0.5,2.2
	l0.1,1l3.5,1.8l0.1,0.5l1.2,0.1l0.7,0.3l0.1,0.9l13.7,3.8l-1.1,0.7l-1.4,0.4l-0.8,0l-2.5-0.3l-14.9-2.6l-1.4,2.1l-1.8,1.9l-3.4,2.6
	l-2.8,1.7l-1,1.4l-0.8,4.4l10.2,2.8l-2.8,3l-1.5,0.8l-3.7,1.3l-0.7,0.1l-3-0.8l-0.7,2.2l-0.7,0.8l-1.3,0.5l-1.6,0.5l-0.8-0.2
	l-0.3-0.8l-0.2-4.4L236,78.5l-2.1,0.5l-2.2,0.4L221.3,82c-49.6,11.1-90.1,21-140.2,32.5C79,114.6,74.5,115,72.5,115.1z"/>
<polygon points="146.5,56.6 105,42.7 105.9,41.9 107.1,41.3 110,40.9 114.8,40.4 116.1,40.3 121,41.1 125.9,41.9 129.5,42.9 
	161.3,53 162.9,53.6 147.8,57.2 "/>
<path class="st0" d="M57.8,67.6c1.9-0.8,6.9-2.4,12.4-0.6c3.1,1,5.1,2.7,6.9,4.3c6.5,5.6,8.6,12.6,9.3,15.5c0.9,3.6,0.8,6.6,0.8,7.5
	c0,1-0.2,4.6-1.9,9c-0.7,1.9-2,5.4-4.8,8.4c-5.1,5.6-12.3,6.5-14.8,6.7"/>
<path class="st0" d="M257.7,85.5"/>
<path class="st0" d="M182.4,65.9"/>
<path class="st0" d="M195,60.8"/>
<path class="st0" d="M266.8,78.8"/>
<polygon class="st1" points="255.3,86.8 186.3,68.3 183.1,64.2 259.8,84.5 "/>
<polygon class="st1" points="267.1,78.8 194.9,60.4 201.9,59.5 271.7,76.5 "/>
</svg>
