<?xml version="1.0" encoding="utf-8"?>
<!-- Generator: Adobe Illustrator 19.2.1, SVG Export Plug-In . SVG Version: 6.00 Build 0)  -->
<svg version="1.1" id="Layer_1" xmlns="http://www.w3.org/2000/svg" xmlns:xlink="http://www.w3.org/1999/xlink" x="0px" y="0px"
	 viewBox="0 0 315 148" style="enable-background:new 0 0 315 148;" xml:space="preserve">
<path class="st2" d="M7.6,64.2l96.9-0.8h39.7l1-1.4l2.9-1h1.5h2.7h1.2l1.7-1.2l5.1-1.7h3.7l1.5-0.8l3.6-2.2v-2l3.9,1.2h8l2.7-0.2
	l1.4-1h2.2v-1.7l2.5-0.7h2.5l0.8-2.9h1.9l3.1,1.2l3.4,0.2l3.7-1.4c0,0,1.2-1.4,1.2,0c0,1.4,0,3.1,0,3.1h1.7v-1.2l1.5-3.9v-3.2h2.5
	l0.8-2l-1.4-1.2l-0.5-4.2h5.3v4.2v1l3.6,1.2l3.9,0.8l32.4,0.2v1.2l-11.5-0.2l-0.7,1.5l-22.6-0.2l-0.3,1.9l-3.9,1.2l-3.7-0.7l-1,3.9
	l-0.8,2l4.6,1.2l4.2,0.2l1.4-1.7l1.7,1l12.7-0.5l0.7,2l-5.4,10.7h-2.5l-1.2,2.5l-1.4,2h3.7l0.8,1.2h25.3h5.4h19l1.5,3.1l0.7-1.7
	l8-0.3v-2.2l1-2.2l1.2-2.4l2-1.9l2.2-1.2l3.1-0.8h2.5l2.2,0.7l1.7,1.5l1.9,2l1,1.7v1.4v2.9v2.6l-1,1.7l-1.4,1.9l-1.2,1.4V81
	l-0.7,0.8l-2.5,1h-2.7h-2.7h-1.7l1.9,1.7l0.7,1.7l-0.3,2.5l-1.4,1.5l-1.5,1h-2.5l-2.4-1.7l-1.4-1l-0.7,1.9l0.2,2.2l-1.5,0.8h-2.4
	l-1.7,1h-1.9l-2,2.2l-1.9,2.7l-3.4,2.2l-10.7,6.5l-13.6,7.4H119.1L92.6,97.2l-0.2-3.1l-2.2-0.2L90,87.8l2-4.4l-0.2-3.7l20.6-0.8
	l0.8-3.9h32.4l6.8-1.5l-2.4-1.1l-3.9,0.3l-1.9-1.9L80,69.8L7.6,69.6V64.2z"/>
</svg>