<?xml version="1.0" encoding="utf-8"?>
<!-- Generator: Adobe Illustrator 19.2.1, SVG Export Plug-In . SVG Version: 6.00 Build 0)  -->
<svg version="1.1" id="Layer_1" xmlns="http://www.w3.org/2000/svg" xmlns:xlink="http://www.w3.org/1999/xlink" x="0px" y="0px"
	 viewBox="0 0 315 148" style="enable-background:new 0 0 315 148;" xml:space="preserve">
<style type="text/css">
	.st0{fill:#FFFFFF;}
</style>
<polygon points="8.2,9.4 4.4,18 4.8,19.1 17,23.8 22.4,23.9 124.4,62 125.8,63.4 152,72.9 154.5,73.8 158.9,75.3 159.8,81.4 
	164.5,81.9 164.3,77.9 183.1,84.8 178.6,89.8 178.6,91.4 173,92.2 168.3,94 166,96 163.9,99 162.2,98.3 159.5,97.9 156.7,99.1 
	154.5,100.2 154.6,105.5 155.5,107.4 155.5,113 155.5,120.5 156,120.9 156.1,122.2 155.3,122.8 145,123.4 145.2,124.7 146,125.1 
	168.3,125.2 168.6,124.8 169.2,123.9 168.4,123.2 159.4,122.8 158.6,122.4 158.4,120.9 159,120.6 159,116.5 159.5,116 161.6,115.9 
	162.1,114.9 162.5,114.6 161.8,113.6 160.8,114.3 159.6,114.4 159.5,113.4 159.1,113.4 159.1,107.5 160,105.8 160.1,101.8 
	160.8,102 161.3,102.6 161.9,102.9 161.1,105.9 161.2,110.1 161.9,113.1 163.2,115.4 166.2,119 169.5,121.1 172.6,122.4 
	176.2,122.8 179.9,122.7 183.3,121.4 185.6,120.2 188,118.1 189.8,115.9 191.3,113.8 191.9,111.9 294.1,124 294.9,132.3 
	295.3,136.1 305.4,136.4 306.5,135.6 306.6,126.8 305.4,125.9 305.4,124.9 305.9,124.5 312,124.7 311.2,123.6 310.9,121.7 
	207.7,103.1 207.7,97.4 211.6,98.5 212,101.6 213.8,102.7 218.6,96.5 221.7,87.9 222.8,87.7 223.2,87.2 224.1,86.1 224,85.1 
	224.8,84.2 224.8,81.8 223.3,81.7 221.1,83.1 221,78.9 218.1,76.7 215.3,76.8 215.2,78.2 213.7,78.2 212.2,76.9 210.9,76.5 
	210.6,74.3 183.2,63.7 182.6,65.8 176.2,63.6 175.9,64.4 174.3,63.9 173.5,65.9 167.7,64.1 167.4,63.1 165,62.5 164.1,63.3 
	156.2,60 154.6,63 163.1,66.1 162.6,67.3 129.9,55.1 127.7,54.7 24.8,17.8 20.4,13.8 "/>
<rect x="10.4" y="14" transform="matrix(0.9358 0.3526 -0.3526 0.9358 6.3993 -2.9938)" class="st0" width="2" height="4.1"/>
<rect x="16.2" y="16.2" transform="matrix(0.9358 0.3526 -0.3526 0.9358 7.536 -4.877)" class="st0" width="2" height="4.1"/>
</svg>
