<?xml version="1.0" encoding="utf-8"?>
<!-- Generator: Adobe Illustrator 19.2.1, SVG Export Plug-In . SVG Version: 6.00 Build 0)  -->
<svg version="1.1" id="Layer_1" xmlns="http://www.w3.org/2000/svg" xmlns:xlink="http://www.w3.org/1999/xlink" x="0px" y="0px"
	 viewBox="0 0 315 148" style="enable-background:new 0 0 315 148;" xml:space="preserve">
	<path d="M294.5,24.3l17.3-12.8l-2-5l-15.4,16.3h-10.9l-7.4-6.8l7.6-2.2l2-2.3l-10.9,3.1l-5.3-5l-2.8,6.7l0.7,0.4L147.1,51
		l75.4-31.5l-5.8-0.3l-76.8,32l6-7.5l-4.8,0.8l-4.5,5.1l-2.7-1.4h-5.4v5l0.4,0.3L9.3,67.2l-1.7,2.3l123.4-12v0.8l-4.9,7.2
		l21.4-3.2l-1.4-1.5l-5.1-0.6v-1.8l-2.3-1l-0.5-2l0.5-0.1l130.8-37.4l12.3,6.2L258.8,58l-77,9.8l-0.8-0.4l0.1-0.9
		c0,0,1.1-1.5,1-1.6s0-2,0-2l-2.1-2.2v-4.1l-2.4-0.9l-2.3,0.6l-1.8,0.9v5.7v0.7l0,0l-8.5-3.1c0,0-16.3,1.8-17.3,1.8l-0.3,0
		l-21.7,3.2h-2l-4,0.8l-2.3,0.3l-3.3,1.3l-3.3,2.8l-1,3.5l-9.3,2.8l-4,1.8l-0.5,2.3L88,83.3L86,85l-0.5,2.5l0.3,2.5l2.5,2.3
		L85.5,93l-4.3,1.3l-2.3,1l-2.8,3.3l-1.5,2.3l-1.3,3.5v3.3l-2.8,0.3l-2.8,0.5l-3.3,1.8l-3,2l-2.8,3.3l-1.8,2l-0.8,4.8l-0.5,5
		l-0.3,2.5l0.8,5.3l-9.5,3v1.5l10.5-2.3l7,1v5.8l6.3-1.3h3.8h4.3l5.8-2.3v-5.8l3.3-4.3l25-4.8l55.8-9.5l10.5-6.8l8.8-0.5l3.5,2.5
		l15.5-1.5l10.3-5.5l-0.5-3l-11-1.3l-0.5-2.8l-3.5-1.8l29-11L277,63.8L290.7,33l2.5,31.9l4.8-2l-6.7-31.2L294.5,24.3z"/>
</svg>
