<?xml version="1.0" encoding="utf-8"?>
<!-- Generator: Adobe Illustrator 19.2.1, SVG Export Plug-In . SVG Version: 6.00 Build 0)  -->
<svg version="1.1" id="Layer_1" xmlns="http://www.w3.org/2000/svg" xmlns:xlink="http://www.w3.org/1999/xlink" x="0px" y="0px"
	 viewBox="0 0 315 148" style="enable-background:new 0 0 315 148;" xml:space="preserve">
<style type="text/css">
	.st0{fill:#FFFFFF;}
</style>
<path d="M16.3,96.4v-6.9l0.9-3.6l1.6-1.4h2.1v-4.9l-0.6-5l1.5-6.1l1.8-1l0.6-2l16-5.2l9.2-2.1L62,56.7l9.6-0.6l8.2,0.5l-0.9-2.2
	l0.4-4.5l1.8-2.7l0.9-0.5l2.2-6.5l-0.6-0.6h-0.9L82.4,38h1.4l3.8-2l2.5-0.4l1.4-2.2h1.4l0.7,2l24,0.1l1.9,0.8l1.3,0.6l1.7,1.1
	l0.8,0.6c0,0,0.3,0,0.3,0.2s0,0.9,0,0.9l-0.6,0.1l1.3,16.9l0.5,0.5v3.3l0.9,0.5V36.3l3.7,0l3.8-1.2l3.7-0.2l2,0.3l2.7,0.9l4-0.1
	l-0.1,32.7h0.8l0.4-1.1l0.9-1l1.2-0.4l10.5-0.1l1.6,0.7l0.6,0.9c0,0,0.2,0.9,0.3,1c0,0.1,0,2.1,0,2.1l11.9,0.1l5.2,0l0.2-2l5.8-0.2
	l0.4,1.2l0.9-0.8l1.5,0.9L187,72l0.3,1.2l-1.4,0.8l-0.1,3.3l2-0.1l0.2-1.7l1.3-1l17.9-0.1l0.9-1.7l1-0.3l-1.5-8.5l0.7-0.4l-1.2-0.8
	l0.1-3.7l0.3-8l6.2,1.5l-2.7,7.1l2.4-0.9l21.5,0l-19.6-6.1l-0.9,0.1l-6.9-1.6l1.1-5.3l-2.7-1.3l-28.6-5.7l4.7-22.2l30.5,6.4l0.5-0.7
	l0.8-0.7l1.5,0.7v1.2L276.1,36l0.6-1.1l1.2-0.2l0.7-0.2l1.4,0.6l0.5,0.4l1,0.1l9.4,1.8l-0.4,2.1l1.6,1.3l-0.4,2l-0.4,0.3l-1.6,0.1
	l-0.4,1.9l1.5,0.7l-0.2,2.4l-0.4,0.5l-1.7-0.1l-0.4,2l1.4,0.6l0.2,0.6l-0.5,2.1h-2.2l-0.1,2.5h0.8l1,0.9l-0.4,1.9l-1.8,0.5l-0.5,1
	l-7.2-1.6l-0.5,0.4l-2.4-0.5l-0.8,4.5l3.4,0.7l-0.2,2.4l1.4,0.7l-0.2,1.2l-0.6,0.7l-0.6,0.6L278,71l0.2,2.3l1.3,1.1l0.8-0.6
	l-0.4-0.8l0.4-0.7l5.3,1.7l1.1,1.3l-0.5,1l0.1,0.8l0.6,2l-0.3,2.2l-0.7,1.6l-1.1,0.9l-1.6,0.8l-1.7,0.5l-1.9-0.7l-1.2-0.5l-1.2,0.9
	l0.9,0.7l1-0.2l1,0.3l-0.7,1.4l-2.8,0.1l-2.4-1.6l-4.8-3.9l1.5-1.9l1,1l0.7,0.5l0.1-1.4l1.5,0.1l0.2-2.7l-3.5-3.1l-0.6,1l-0.9,0.5
	l-1.2-0.3l-0.9-1.2l-5.2-0.1l-0.8,0.5l0.1,1.5l-0.7,1h-1.6l0.3,0.9l4,1.5l3.8,1.7l3.2,2.3l3.1,2.7l1.1,1.3l13,0.1l0.2,1.7l2.1,0.3
	l0.3,4.3l8.7,0.2v4.8h-5.4l0.1,0.5l1.4,0.3c0,0,1.1,0.6,1.3,0.7s0.7,1.4,0.7,1.4v1.2l-0.4,1.4l-0.8,1.1l-1.4,0.7l-1.2,0.3l-1.2-0.5
	l-1.3-0.9l-0.7-0.6h-0.7v1l-1,0.5l-3.2-0.1l-2.5-0.1l-0.5-0.7l-3.3,0.3l-4.3-3.7l0.5,2.2c0,0,1,2.2,1,2.6c0,0.4,0.5,3.2,0.5,3.2
	l-0.1,2.8l-0.3,3.1l-0.8,4.1l-0.9,2.3l-1.5,2.7l-1.3,2l-1.8,2l-2.6,2.5l-2.3,1.7l-3,1.3l-3.2,1.2l-3.1,0.6L252,136l-4-0.4l-3.3-0.7
	l-3.1-1.2l-2.9-1.6l-3-2.3l-2.2-2.3l-1.8-2.6l-1.5-2.7l-0.9-2.7l-0.8-2.6l-0.3-2.8l-0.1-0.9l-1.1-1.7l-2.8-0.2l-1.2,1.5l-0.3,3.3
	l-0.7,3.2l-1.1,2.6l-1.6,2.7l-2,2.6l-2.8,2.8l-2.6,1.9l-2.8,1.6l-3.4,1.5l-3.4,0.9h-3.5l-4.6-0.4l-3.8-1l-3.3-1.5l-3-1.9l-2.3-2.1
	l-2.1-2.3l-1.6-2.1l-1.3-2.5l-1.1-3l-0.7-2.7l-0.3-2.5l-0.2-2.4l0.2-2l0.5-2.9l0.2-0.7h-1.7l-0.1,3l-1.8-0.2l-0.2,1.5l-3,0.1
	l-0.2-1.3h-28.9l0.1,1.1l-3,0.1l-0.2-1l-5.5-0.2l-0.1-1.6l-8.5-0.2l-0.9-0.8v-0.9l0.7-1h2.7l-0.1-1l-2.1-0.2l-1.1-0.3l-0.2-1.2
	l-0.1-0.4H120v2.7l-1.2,0.8H96.7l-0.2-1.4l-2.7-0.2l-0.5,1.1l-0.1,1.8l-1.2,1.2l-1.2-0.2l-1.1-1.1l0.2-2.2l-1.1-0.1
	c0,0-0.2,0.8-0.3,0.8s-1.5,0.1-1.5,0.1l0.8,3.6l0.2,3l-0.2,2.7l-0.4,3.3l-0.9,2.6l-1.4,2.8l-1.8,3l-1.9,2.3l-2.2,2.1l-2.9,2
	l-2.7,1.6l-3.2,1.1l-3.5,0.7l-3,0.2h-3.1l-4.1-0.7l-3.7-1.6l-3-1.9l-2.8-1.9l-2.4-2.6l-1.9-2.9l-1.6-3.4l-1.2-3.2l-0.5-4v-3.4
	L40,107l0.9-2.9l0.7-1.4l-2.6-1.1l-1.3-0.2l-0.2,0.3l-1,0.1l-0.4-1l-2.3-0.3l-0.6,0.3l-1-0.6l-0.6-1.4l0.3-1.2l-1.3-1.2l-10.2-0.2
	L20,96.8l-3.7-0.1V96.4z"/>
<rect x="179.9" y="32.3" transform="matrix(0.979 0.2038 -0.2038 0.979 11.6413 -47.2814)" class="st0" width="111.1" height="1.1"/>
<rect x="178.8" y="37.7" transform="matrix(0.979 0.2038 -0.2038 0.979 12.7092 -46.9365)" class="st0" width="111.1" height="1.1"/>
<rect x="177.5" y="43.5" transform="matrix(0.979 0.2038 -0.2038 0.979 13.8625 -46.5633)" class="st0" width="111.1" height="1.1"/>
<rect x="176.3" y="49.3" transform="matrix(0.979 0.2038 -0.2038 0.979 15.0281 -46.1524)" class="st0" width="110.8" height="1.1"/>
</svg>
