<?xml version="1.0" encoding="utf-8"?>
<!-- Generator: Adobe Illustrator 19.2.1, SVG Export Plug-In . SVG Version: 6.00 Build 0)  -->
<svg version="1.1" id="Layer_1" xmlns="http://www.w3.org/2000/svg" xmlns:xlink="http://www.w3.org/1999/xlink" x="0px" y="0px"
	 viewBox="0 0 315 148" style="enable-background:new 0 0 315 148;" xml:space="preserve">
<path d="M46.3,90.7v-5.4l0.7-2.9l1.2-1.1h1.6v-3.9l-0.5-4l1.2-4.9l1.4-0.8l0.5-1.6l12.7-4.1l7.3-1.6l10.1-1.2l7.6-0.5l6.5,0.4
	l-0.7-1.7l0.3-3.5l1.4-2.1l0.7-0.4l1.7-5.1l-0.5-0.5h-0.7l-0.2-1.3h1.1l3-1.6l2-0.4l1.1-1.7h1.1l0.5,1.5l19,0.1l1.5,0.6l1.1,0.5
	l1.3,0.8l0.6,0.5c0,0,0.2,0,0.2,0.1s0,0.7,0,0.7l-0.5,0.1l1,13.4l0.4,0.4v2.6l0.7,0.4l0.1-1.4h15.5l0,7.6h0.6l0.4-0.8l0.7-0.8
	l0.9-0.3l8.3,0l1.2,0.6l0.5,0.7c0,0,0.2,0.7,0.2,0.8c0,0.1,0,1.7,0,1.7l9.4,0l4.1,0l0.2-1.6l4.6-0.1l0.4,0.9l0.7-0.6l1.2,0.7
	l-0.4,1.4l0.2,0.9l-1.1,0.7l-0.1,2.6l1.6,0l0.2-1.3l1-0.8l14.2-0.1L198,72l0.8-0.2l-1.2-6.8l0.6-0.3l-1-0.6l0.1-2.9l0.3-6.3l4.9,1.2
	l-2.1,5.6l1.9-0.7l17,0L203.9,56l-0.7,0.1l-5.5-1.3l0.9-4.2l-2.1-1L173.8,45l3.7-17.6l24.1,5.1l0.4-0.5l0.6-0.5l1.2,0.5v0.9l48.1,10
	l0.5-0.9l1-0.2l0.5-0.2l1.1,0.5l0.4,0.3l0.8,0.1l7.5,1.4l-0.3,1.7l1.3,1l-0.3,1.6l-0.3,0.2l-1.2,0.1l-0.3,1.5l1.2,0.5l-0.2,1.9
	l-0.3,0.4l-1.4,0l-0.3,1.6l1.1,0.5l0.2,0.5l-0.4,1.6h-1.7l-0.1,2h0.6l0.8,0.7l-0.3,1.5l-1.4,0.4l-0.4,0.8l-5.7-1.2l-0.4,0.3
	l-1.9-0.4l-0.6,3.6l2.7,0.6l-0.1,1.9l1.1,0.5l-0.2,1l-0.5,0.6l-0.5,0.5l-0.4,0.7l0.1,1.8l1,0.9l0.7-0.5l-0.3-0.7l0.3-0.5l4.2,1.4
	l0.9,1l-0.4,0.8l0.1,0.6l0.5,1.6l-0.2,1.7l-0.6,1.2l-0.9,0.7l-1.2,0.6l-1.3,0.4l-1.5-0.5l-0.9-0.4l-1,0.7l0.7,0.5l0.8-0.2l0.8,0.2
	l-0.5,1.1l-2.2,0l-1.9-1.3l-3.8-3.1l1.2-1.5l0.8,0.8l0.6,0.4l0-1.1l1.2,0l0.2-2.1l-2.8-2.4l-0.5,0.8l-0.7,0.4l-1-0.2l-0.7-1l-4.1,0
	l-0.6,0.4l0.1,1.2l-0.6,0.8h-1.2l0.2,0.7l3.1,1.2l3,1.4l2.5,1.9l2.5,2.1l0.9,1l10.3,0.1l0.1,1.3l1.6,0.2l0.2,3.4l6.9,0.1v3.8h-4.2
	l0.1,0.4l1.1,0.2c0,0,0.9,0.5,1,0.6c0.1,0.1,0.5,1.1,0.5,1.1v1l-0.3,1.1l-0.6,0.9l-1.1,0.5l-0.9,0.2l-1-0.4l-1-0.7l-0.5-0.5h-0.5
	v0.8l-0.8,0.4l-2.5,0l-2,0l-0.4-0.6l-2.6,0.2l-3.4-2.9l0.4,1.8c0,0,0.8,1.7,0.8,2c0,0.3,0.4,2.6,0.4,2.6l-0.1,2.2l-0.2,2.5l-0.7,3.3
	l-0.7,1.8l-1.2,2.1l-1,1.6l-1.4,1.6l-2,2l-1.9,1.3l-2.3,1l-2.6,1l-2.4,0.5l-2.8,0.2l-3.1-0.3l-2.6-0.6l-2.5-0.9l-2.3-1.3l-2.3-1.8
	l-1.8-1.9l-1.4-2.1l-1.2-2.1l-0.7-2.1l-0.7-2.1l-0.2-2.2l-0.1-0.7l-0.9-1.4l-2.2-0.1l-0.9,1.2l-0.2,2.6l-0.6,2.6l-0.9,2.1l-1.2,2.1
	l-1.6,2.1l-2.2,2.2l-2.1,1.5l-2.2,1.2l-2.7,1.2l-2.7,0.7h-2.8l-3.6-0.3l-3-0.8l-2.6-1.2l-2.4-1.5l-1.9-1.7l-1.7-1.9l-1.2-1.7l-1-2
	l-0.9-2.3l-0.5-2.1l-0.2-2l-0.1-1.9l0.2-1.6l0.4-2.3l0.2-0.5h-1.4l0,2.3l-1.4-0.1l-0.2,1.2l-2.4,0l-0.2-1h-22.9l0,0.9l-2.4,0
	l-0.1-0.8l-4.3-0.1l0-1.2l-6.7-0.1l-0.7-0.7v-0.7l0.6-0.8h2.1l0-0.8l-1.6-0.2l-0.9-0.2l-0.2-0.9l0-0.3h-0.9v2.1l-1,0.6h-17.5
	l-0.2-1.1l-2.1-0.2l-0.4,0.9l0,1.4l-1,1l-0.9-0.1l-0.9-0.9l0.1-1.7l-0.9,0c0,0-0.1,0.7-0.2,0.7c-0.1,0-1.2,0.1-1.2,0.1l0.7,2.8
	l0.2,2.4l-0.1,2.1l-0.3,2.6l-0.7,2.1l-1.1,2.2l-1.4,2.3l-1.5,1.8l-1.8,1.7l-2.3,1.6l-2.1,1.2l-2.5,0.9l-2.8,0.6l-2.3,0.1h-2.5
	l-3.3-0.5l-2.9-1.3l-2.4-1.5l-2.2-1.5l-1.9-2.1l-1.5-2.3l-1.3-2.7l-1-2.5l-0.4-3.2v-2.7l0.3-2.5l0.7-2.3l0.5-1.1l-2-0.9l-1-0.2
	l-0.2,0.2L62.3,95l-0.3-0.8L60.2,94l-0.5,0.2l-0.8-0.5l-0.5-1.1l0.2-0.9l-1-0.9l-8.1-0.2L49.2,91l-3,0V90.7z"/>
</svg>
