<?xml version="1.0" encoding="utf-8"?>
<!-- Generator: Adobe Illustrator 19.2.1, SVG Export Plug-In . SVG Version: 6.00 Build 0)  -->
<svg version="1.1" id="Layer_1" xmlns="http://www.w3.org/2000/svg" xmlns:xlink="http://www.w3.org/1999/xlink" x="0px" y="0px"
	 viewBox="0 0 315 148" style="enable-background:new 0 0 315 148;" xml:space="preserve">
<style type="text/css">
	.st0{fill:#FFFFFF;}
</style>
<path d="M43.6,57.1l-0.4-0.9l-0.3-0.8l-0.3-0.8l-0.4-1l-0.3-1l0-0.9l0.5-1l0.9-0.6l2-0.7l2.5-0.5l1.5-0.3l1.4-0.2l2.9-0.3l9.8-0.6
	l12.1-0.7L93,42.6c0,0,1.3-0.4,1.4-0.4c0.1,0,1.9,0,1.9,0l4.2,0.5l23,5.1l8.9,2l-0.8-3.6l-10-2.2l0.6-1.1l2.4-1.4l3.1-0.5l3.4-0.1
	l-0.2-1.3l-10.4-2.1l-0.5-0.5l0.5-1.5l1.5-0.7l3-0.6l3.1-0.6l-0.1-0.6h-2.5l-5.9-1.2l-0.6-0.8l0.8-1.4l2-0.7l3.1-0.6l3.3-0.1
	l0.2-1.2l-7.3-1.3l-4.3-2.2l1-1l2.3-0.6h2.6l5.4,0.8l-1.3-11.6l-0.6-2.8L123.6,7l-3.5-1.6l0.1-1.4l0.8-1l1.5-0.3l2.9-0.2l4.6,0.8
	l6.3,1.2l7.9,1.8l6.2,1.6l2,1.2l1.6,2.3l-0.4,1.3l-1.1,0.7l-4.7-0.6l30.6,47.4l5,1.6l4.5,2.4l21,5.7L255.3,40l2.7,0.3l7.5,2.6
	l-12.1,36.3l13.2,3l5.3,1.3l2.9,1.6l-2.7,1l-5.4-0.9l-2-0.5l-0.4,0.7l1.7,1.5l-1,3.4l-2,1.9l-2.1,0.6l-1-0.6l7.3,11.4l-12.8-2
	L239.1,91l-24.2,1l0.2,2.6l-0.9,2.6l-0.3,1.4l-1.7,2.3l-2.9,0.9l-5.5-0.5l20.4,36.2l4.1,0.9l3,0.9l2.1,1.1c0,0,0.8,1.7,1,2.1
	c0.2,0.4-0.5,2-0.5,2l-1.7,0.6l-6.9-1l-10-1.8l-8.7-1.8l-6-2.3l-0.2-2.1l1.7-1.1l2.3-0.3l-9.8-9.7l-14-2.5l-5.2-2l1.6-1.2l2.2-0.6
	l3.5,0.6l2.9,0.6l2.7-0.6l-2.1-2.3l-10.6-2c0,0-4.1-0.6-4.4-0.6c-0.3,0-2.2-0.8-2.2-0.8l1.7-1.7l1.8-0.7l3.3-0.3l2.2-0.2l1.4-0.2
	l-1.8-1.9l-15.3-2.9l-0.9-0.7l1-1.6l1.4-0.6l2.9-0.4l5-0.2l-2.8-2.7l-15.4-3.1l0.4-1.5l0.6-0.7l3.8-0.6l3.4-0.3l2.3-0.1l-1-0.8
	l-12-0.5l-11.6-2.6L129,85l-6.3-3.3l-1.5-0.3l-17.5-3.2l-12.4-2.7l-7.9-1.9l-8.1-2.1L67.9,69l-6.6-2.6l-6.3-2.9l-6.2-2.9l-3.6-2
	L43.6,57.1z"/>
<rect x="100.7" y="54.4" transform="matrix(0.9686 0.2486 -0.2486 0.9686 18.6186 -36.9483)" class="st0" width="109.7" height="1.7"/>
<polygon class="st0" points="254.9,104.2 221.5,80.5 226.8,81.7 256.1,102.5 "/>
<polygon class="st0" points="203.1,134.8 142.9,72.7 147.4,74.1 205.9,134.7 "/>
<polygon class="st0" points="223,137.2 195.8,86.2 198.8,87.2 225.9,137.8 "/>
<polygon class="st0" points="132.7,48.5 130.2,48.8 125.5,7.8 127.8,8.9 "/>
</svg>
