<?xml version="1.0" encoding="utf-8"?>
<!-- Generator: Adobe Illustrator 19.2.1, SVG Export Plug-In . SVG Version: 6.00 Build 0)  -->
<svg version="1.1" id="Layer_1" xmlns="http://www.w3.org/2000/svg" xmlns:xlink="http://www.w3.org/1999/xlink" x="0px" y="0px"
	 viewBox="0 0 315 148" style="enable-background:new 0 0 315 148;" xml:space="preserve">
<style type="text/css">
	.st0{stroke:#000000;stroke-miterlimit:10;}
	.st1{fill:#FFFFFF;}
</style>
<path class="st0" d="M46.7,87.9c0,0,3.2,2.7,3.6,2.7c0.4,0,5.4-0.1,5.4-0.1l1.3-1.7v-0.5L54.7,88l-0.8-2l-0.1-2.2l-0.7-2.2l0.6-1.1
	l0.3-1.6l-1.4-0.2l0.2-7.7l0.8-0.2l0.1-4.2l0.8-2.6l1.2-1.2l7.7-20.2l0.9-1.1l1.5-0.4l28.7,0.1l1.1,1.5l1.3,1.9v2v30.7l1.2,0.2
	l0.4-7.8l0.1-32l-4.1-0.2l-0.3-2.7l1.7-0.8l3.2-0.1l2.6,0.1l0.9,1.1l-0.1,2.7h-0.8l0.3,30.5h6.2l1.6,6.4h3.3l0.5-14.2l1.1-0.3v-5.7
	l2-3.6l1.6-0.9l5.3,0.1l1.6,1l1.1,2.1l0.1,7.1h1.1l0.2-28.9l147.5,0.1l1.1,38.4l-1.2,0.4v12.7h-1.8l-0.3,1.5l-0.1,3.6l2,1.4l0.2,4.2
	l-1.7,2.1l-2.5-0.1l-1.5-1.6l-2.2,0.1v1.7l-25.2-0.2l2.2,4.4l0.8,2.8l0.1,4.1l-0.2,3l-1.6,4.2l-2.1,3.1l-3.2,3.3l-3,1.6l-3.9,1.2
	l-2.8,0.2l-3.7-0.5l-4.9-1.7l-3-2.3l-2.6-2.9l-1.6-3.2l-1-2.4l-5.3-0.1l-1.1,2.9l-2.3,3.7l-2.4,2.6l-3.6,2.2l-3.7,1.5l-3.7,0.4
	l-4-0.6l-5.6-2.2l-2.9-3l-2.7-3.3l-1.3-3.8l-0.7-4.1l-0.3-4.1l-5.9-0.1l-0.6,1.2l-5.2-0.1l-0.8,1.7l-0.6,0.4h-6.4l-0.9-1.6l-1.3,0.2
	l-0.4,0.7l-2.3,0.2l-0.4-1.2l-9-0.2v1.2l-2.3-0.4l-0.3-1.2l-2.4,0.3l-3.3-0.8l-0.1-2.1l-14.3-0.3l-1.2-0.7l-6.6,0.1l1,5.1l-0.3,4.6
	l-0.8,2.8l-1,2.5l-2.3,2.5l-2.8,2.4l-3.2,2.3l-4.8,1.4h-3.4l-4-0.7l-3.9-1.7l-3.9-3.5l-2.4-3.7l-1.1-3.3l-0.6-4.4l0.6-3.7l0.9-2.2
	l0.5-0.8l-2.3,1.1h-1.6l-16.8-4.5L54.6,95L48,94.7l-0.2,1.1h-1.7v-7.7L46.7,87.9z"/>
<rect x="126.8" y="83.3" class="st1" width="148.4" height="3"/>
<rect x="98.2" y="57.1" transform="matrix(1.201440e-010 -1 1 1.201440e-010 67.3542 184.5625)" class="st1" width="55.5" height="3"/>
</svg>
