<?xml version="1.0" encoding="utf-8"?>
<!-- Generator: Adobe Illustrator 19.2.1, SVG Export Plug-In . SVG Version: 6.00 Build 0)  -->
<svg version="1.1" id="Layer_1" xmlns="http://www.w3.org/2000/svg" xmlns:xlink="http://www.w3.org/1999/xlink" x="0px" y="0px"
	 viewBox="0 0 315 148" style="enable-background:new 0 0 315 148;" xml:space="preserve">
<style type="text/css">
	.st0{stroke:#000000;stroke-miterlimit:10;}
</style>
<path class="st0" d="M15.3,91.2c0,0,4,3.3,4.5,3.3s6.7-0.2,6.7-0.2l1.7-2.2v-0.7l-2.8-0.2l-1-2.5l-0.1-2.8l-0.9-2.8l0.8-1.4l0.4-2
	l-1.8-0.3l0.3-9.6l1-0.3l0.1-5.3l1-3.3l1.5-1.5l9.6-25.1l1.1-1.4l1.9-0.5L74.9,33l1.4,1.9l1.6,2.4v2.5v38.1l1.5,0.3l0.5-9.8L80,28.6
	l-5.1-0.3L74.5,25l2.1-1l4-0.1l3.3,0.1l1.1,1.4l-0.1,3.4h-1l0.4,37.9H92l2,8h4.1L98.8,57l1.4-0.4v-7.1l2.5-4.5l2-1.1l6.6,0.1l2,1.3
	l1.4,2.6l0.1,8.9h1.4l0.3-35.9L299.8,21l1.4,47.8l-1.5,0.5V85h-2.3l-0.4,1.9l-0.1,4.5l2.5,1.8l0.3,5.3l-2.1,2.6l-3.1-0.1l-1.9-2
	l-2.8,0.1v2.1l-31.4-0.3l2.8,5.5l1,3.5l0.1,5.1l-0.3,3.8l-2,5.3l-2.6,3.9l-4,4.1l-3.8,2l-4.9,1.5l-3.5,0.3l-4.6-0.6l-6.1-2.1
	l-3.8-2.9l-3.3-3.6l-2-4l-1.3-3l-6.6-0.1l-1.4,3.6l-2.9,4.6l-3,3.3l-4.5,2.8l-4.6,1.9l-4.6,0.5l-5-0.8l-7-2.8l-3.6-3.8l-3.4-4.1
	l-1.6-4.8l-0.9-5.1l-0.4-5.1l-7.4-0.1l-0.8,1.5l-6.5-0.1l-1,2.1l-0.8,0.5h-8l-1.1-2l-1.6,0.3l-0.5,0.9l-2.9,0.3l-0.5-1.5l-11.3-0.3
	v1.5l-2.9-0.5l-0.4-1.5l-3,0.4l-4.1-1l-0.1-2.6l-17.8-0.4l-1.5-0.9l-8.3,0.1l1.3,6.4l-0.4,5.8l-1,3.5l-1.3,3.1l-2.9,3.1l-3.5,3
	l-4,2.9l-6,1.8h-4.3l-5-0.9l-4.9-2.1l-4.9-4.4l-3-4.6l-1.4-4.1l-0.8-5.5l0.8-4.6l1.1-2.8l0.6-1l-2.9,1.4h-2l-20.9-5.6l-0.3-1.5
	L17,99.6l-0.3,1.4h-2.1v-9.6L15.3,91.2z"/>
<polygon class="st0" points="117.8,108.9 93.8,112.6 91.4,111.1 91,116.3 92.9,116 94,114.4 119.3,110.4 "/>
<path class="st0" d="M126.1,98.8"/>
</svg>
