<?xml version="1.0" encoding="utf-8"?>
<!-- Generator: Adobe Illustrator 19.2.1, SVG Export Plug-In . SVG Version: 6.00 Build 0)  -->
<svg version="1.1" id="Layer_1" xmlns="http://www.w3.org/2000/svg" xmlns:xlink="http://www.w3.org/1999/xlink" x="0px" y="0px"
	 viewBox="0 0 315 148" style="enable-background:new 0 0 315 148;" xml:space="preserve">
<style type="text/css">
	.st0{fill:#FFFFFF;}
</style>
<polygon points="81.9,42.9 90.1,25 99.3,33.9 99.3,36.5 135.9,36.4 136.5,32.8 138.4,26.4 140.4,25 143.6,25 147.1,26 150.6,28.4 
	153,31.1 154.5,33.1 155.5,34.2 155.9,34.6 157.5,36.4 194,36.3 201.5,20.6 210.6,30.4 210.6,42.9 214.3,46.9 212.8,97 221.5,105.9 
	224.5,109.3 227.4,113.5 229.8,117.3 231.5,120.9 232.6,124.4 232.6,126.3 231.5,128.1 230.3,129.3 227.9,129.5 225.1,129.3 
	217.8,125.3 211.8,120.3 206.5,114.5 200,108 194.3,102 97.8,49.5 91.3,53.5 "/>
<polygon points="141.3,30.3 125.4,22.6 129.2,17.8 "/>
<rect x="142.7" y="63.2" transform="matrix(0.6728 0.7398 -0.7398 0.6728 108.53 -115.9257)" class="st0" width="85.3" height="3"/>
<rect x="118.3" y="68.6" transform="matrix(0.6596 0.7516 -0.7516 0.6596 108.6457 -99.6042)" class="st0" width="92" height="3"/>
</svg>
